<?xml version="1.0" encoding="UTF-8" standalone="no"?>
<svg
   id="Layer_1"
   data-name="Layer 1"
   viewBox="0 0 277 106.63001"
   version="1.1"
   sodipodi:docname="standard-type-hierarchy-numbers.svg"
   width="554"
   height="213.26001"
   inkscape:version="1.3 (0e150ed6c4, 2023-07-21)"
   xmlns:inkscape="http://www.inkscape.org/namespaces/inkscape"
   xmlns:sodipodi="http://sodipodi.sourceforge.net/DTD/sodipodi-0.dtd"
   xmlns="http://www.w3.org/2000/svg"
   xmlns:svg="http://www.w3.org/2000/svg">
  <sodipodi:namedview
     id="namedview394"
     pagecolor="#ffffff"
     bordercolor="#666666"
     borderopacity="1.0"
     inkscape:showpageshadow="2"
     inkscape:pageopacity="0.0"
     inkscape:pagecheckerboard="0"
     inkscape:deskcolor="#d1d1d1"
     inkscape:zoom="3.4368231"
     inkscape:cx="138.5"
     inkscape:cy="167.88761"
     inkscape:window-width="3840"
     inkscape:window-height="2119"
     inkscape:window-x="0"
     inkscape:window-y="41"
     inkscape:window-maximized="1"
     inkscape:current-layer="Layer_1" />
  <defs
     id="defs1">
    <style
       id="style1">&#10;      .cls-1 {&#10;        fill: #0165b2;&#10;      }&#10;&#10;      .cls-2, .cls-7 {&#10;        fill: #fff;&#10;      }&#10;&#10;      .cls-3 {&#10;        fill: #0265b2;&#10;      }&#10;&#10;      .cls-4 {&#10;        fill: #a03091;&#10;      }&#10;&#10;      .cls-5 {&#10;        fill: none;&#10;      }&#10;&#10;      .cls-5, .cls-7 {&#10;        stroke: #000;&#10;        stroke-miterlimit: 10;&#10;      }&#10;&#10;      .cls-6 {&#10;        fill: #0065b3;&#10;      }&#10;&#10;      .cls-7 {&#10;        stroke-dasharray: 2.18 2.18;&#10;      }&#10;&#10;      .cls-8 {&#10;        fill: #0564b1;&#10;      }&#10;&#10;      .cls-9 {&#10;        fill: #f08130;&#10;      }&#10;    </style>
  </defs>
  <g
     id="Numbers"
     transform="translate(0,-29.98)">
    <g
       id="g262">
      <path
         d="m 136.28,94 v -5 h 2.22 a 3,3 0 0 1 1,0.13 1.07,1.07 0 0 1 0.55,0.48 1.43,1.43 0 0 1 0.21,0.76 1.24,1.24 0 0 1 -0.34,0.89 1.75,1.75 0 0 1 -1.07,0.47 1.54,1.54 0 0 1 0.4,0.25 3.46,3.46 0 0 1 0.55,0.67 l 0.87,1.36 h -0.83 l -0.66,-1 q -0.3,-0.45 -0.48,-0.69 a 1.79,1.79 0 0 0 -0.34,-0.34 1,1 0 0 0 -0.3,-0.13 1.64,1.64 0 0 0 -0.37,0 h -0.77 V 94 Z m 0.66,-2.8 h 1.43 a 2.23,2.23 0 0 0 0.71,-0.09 0.85,0.85 0 0 0 0.39,-0.3 0.9,0.9 0 0 0 0.13,-0.45 0.76,0.76 0 0 0 -0.26,-0.59 1.21,1.21 0 0 0 -0.81,-0.23 h -1.59 z"
         transform="translate(-4,-1.09)"
         id="path247" />
      <path
         d="m 143.73,92.85 0.63,0.08 a 1.52,1.52 0 0 1 -0.55,0.86 1.65,1.65 0 0 1 -1,0.31 1.68,1.68 0 0 1 -1.27,-0.49 1.91,1.91 0 0 1 -0.46,-1.37 2,2 0 0 1 0.47,-1.43 1.61,1.61 0 0 1 1.22,-0.5 1.53,1.53 0 0 1 1.19,0.49 2,2 0 0 1 0.46,1.4 v 0.16 h -2.71 a 1.45,1.45 0 0 0 0.34,0.92 1,1 0 0 0 0.76,0.32 0.93,0.93 0 0 0 0.58,-0.18 1.24,1.24 0 0 0 0.34,-0.57 z m -2,-1 h 2 a 1.15,1.15 0 0 0 -0.23,-0.69 0.93,0.93 0 0 0 -0.76,-0.36 1,1 0 0 0 -0.71,0.29 1.09,1.09 0 0 0 -0.32,0.77 z"
         transform="translate(-4,-1.09)"
         id="path248" />
      <path
         d="m 147.5,93.57 a 2.06,2.06 0 0 1 -0.65,0.41 1.91,1.91 0 0 1 -0.68,0.12 1.33,1.33 0 0 1 -0.92,-0.29 1,1 0 0 1 -0.2,-1.23 1,1 0 0 1 0.32,-0.36 1.6,1.6 0 0 1 0.44,-0.2 4.79,4.79 0 0 1 0.55,-0.09 5.81,5.81 0 0 0 1.09,-0.21 1.39,1.39 0 0 0 0,-0.17 0.64,0.64 0 0 0 -0.18,-0.52 1,1 0 0 0 -0.7,-0.21 1.1,1.1 0 0 0 -0.64,0.15 0.93,0.93 0 0 0 -0.31,0.54 l -0.6,-0.08 a 1.67,1.67 0 0 1 0.27,-0.63 1.15,1.15 0 0 1 0.55,-0.36 2.28,2.28 0 0 1 0.82,-0.13 2.07,2.07 0 0 1 0.76,0.11 1,1 0 0 1 0.42,0.27 0.9,0.9 0 0 1 0.19,0.42 2.48,2.48 0 0 1 0,0.57 v 0.82 a 7.84,7.84 0 0 0 0,1.08 1.15,1.15 0 0 0 0.15,0.44 h -0.64 a 1.25,1.25 0 0 1 -0.04,-0.45 z m -0.05,-1.37 a 4.25,4.25 0 0 1 -1,0.23 3.25,3.25 0 0 0 -0.54,0.12 0.68,0.68 0 0 0 -0.24,0.2 0.53,0.53 0 0 0 0.1,0.7 0.8,0.8 0 0 0 0.55,0.17 1.23,1.23 0 0 0 0.63,-0.16 0.9,0.9 0 0 0 0.4,-0.42 1.45,1.45 0 0 0 0.1,-0.62 z"
         transform="translate(-4,-1.09)"
         id="path249" />
      <path
         d="m 149,94 v -5 h 0.61 v 5 z"
         transform="translate(-4,-1.09)"
         id="path250" />
      <path
         d="m 126.67,103.89 a 6.06,6.06 0 0 1 -0.86,-1.5 4.59,4.59 0 0 1 -0.35,-1.78 4.48,4.48 0 0 1 0.26,-1.56 6.47,6.47 0 0 1 1,-1.73 h 0.44 c -0.28,0.48 -0.46,0.82 -0.55,1 a 5.38,5.38 0 0 0 -0.33,1 6.29,6.29 0 0 0 -0.14,1.29 6.17,6.17 0 0 0 1,3.28 z"
         transform="translate(-4,-1.09)"
         id="path251" />
      <path
         d="m 130.19,101.09 0.61,0.08 a 1.61,1.61 0 0 1 -0.51,1 1.5,1.5 0 0 1 -1,0.35 1.54,1.54 0 0 1 -1.2,-0.49 2,2 0 0 1 -0.45,-1.39 2.53,2.53 0 0 1 0.19,-1 1.41,1.41 0 0 1 0.59,-0.66 1.76,1.76 0 0 1 0.87,-0.22 1.52,1.52 0 0 1 1,0.3 1.36,1.36 0 0 1 0.48,0.85 l -0.6,0.09 a 1,1 0 0 0 -0.3,-0.55 0.82,0.82 0 0 0 -0.53,-0.19 1,1 0 0 0 -0.75,0.34 2.1,2.1 0 0 0 0,2.11 0.94,0.94 0 0 0 1.34,0.11 1.05,1.05 0 0 0 0.26,-0.73 z"
         transform="translate(-4,-1.09)"
         id="path252" />
      <path
         d="m 131.31,102.42 v -5 h 0.62 v 5 z"
         transform="translate(-4,-1.09)"
         id="path253" />
      <path
         d="m 135.25,102 a 2.21,2.21 0 0 1 -0.66,0.41 1.91,1.91 0 0 1 -0.68,0.12 1.35,1.35 0 0 1 -0.92,-0.29 1,1 0 0 1 -0.32,-0.75 1,1 0 0 1 0.12,-0.48 1,1 0 0 1 0.32,-0.36 1.6,1.6 0 0 1 0.44,-0.2 5.21,5.21 0 0 1 0.55,-0.09 6,6 0 0 0 1.1,-0.21 V 100 a 0.67,0.67 0 0 0 -0.17,-0.52 1,1 0 0 0 -0.7,-0.21 1.13,1.13 0 0 0 -0.65,0.15 0.93,0.93 0 0 0 -0.3,0.54 l -0.6,-0.08 a 1.4,1.4 0 0 1 0.27,-0.63 1.08,1.08 0 0 1 0.54,-0.36 2.31,2.31 0 0 1 0.82,-0.13 2,2 0 0 1 0.76,0.11 1,1 0 0 1 0.43,0.27 1,1 0 0 1 0.19,0.42 3.58,3.58 0 0 1 0,0.57 v 0.82 a 7.84,7.84 0 0 0 0,1.08 1.35,1.35 0 0 0 0.15,0.44 H 135.3 A 1.48,1.48 0 0 1 135.25,102 Z m -0.05,-1.37 a 4.49,4.49 0 0 1 -1,0.23 2.86,2.86 0 0 0 -0.53,0.12 0.63,0.63 0 0 0 -0.25,0.2 0.61,0.61 0 0 0 -0.08,0.3 0.54,0.54 0 0 0 0.18,0.41 0.88,0.88 0 0 0 0.55,0.16 1.18,1.18 0 0 0 0.63,-0.16 0.92,0.92 0 0 0 0.41,-0.42 1.63,1.63 0 0 0 0.1,-0.62 z"
         transform="translate(-4,-1.09)"
         id="path254" />
      <path
         d="m 136.53,101.34 0.6,-0.1 a 0.87,0.87 0 0 0 0.29,0.56 1,1 0 0 0 0.65,0.2 0.91,0.91 0 0 0 0.63,-0.18 0.5,0.5 0 0 0 0.21,-0.4 0.38,0.38 0 0 0 -0.18,-0.33 2.89,2.89 0 0 0 -0.63,-0.21 5.73,5.73 0 0 1 -0.94,-0.29 1,1 0 0 1 -0.4,-0.35 0.92,0.92 0 0 1 -0.13,-0.49 1,1 0 0 1 0.11,-0.45 1.08,1.08 0 0 1 0.26,-0.3 1.42,1.42 0 0 1 0.39,-0.18 1.9,1.9 0 0 1 0.54,-0.07 2.19,2.19 0 0 1 0.75,0.12 1,1 0 0 1 0.47,0.33 1.24,1.24 0 0 1 0.21,0.57 l -0.6,0.08 a 0.61,0.61 0 0 0 -0.24,-0.44 0.88,0.88 0 0 0 -0.55,-0.16 1.08,1.08 0 0 0 -0.61,0.14 0.43,0.43 0 0 0 -0.18,0.33 0.37,0.37 0 0 0 0.08,0.22 0.59,0.59 0 0 0 0.23,0.16 l 0.55,0.16 a 7.58,7.58 0 0 1 0.91,0.28 0.94,0.94 0 0 1 0.4,0.33 0.86,0.86 0 0 1 0.15,0.52 1,1 0 0 1 -0.18,0.58 1.16,1.16 0 0 1 -0.52,0.42 1.84,1.84 0 0 1 -0.76,0.15 1.76,1.76 0 0 1 -1.08,-0.29 1.33,1.33 0 0 1 -0.43,-0.91 z"
         transform="translate(-4,-1.09)"
         id="path255" />
      <path
         d="m 140,101.34 0.6,-0.1 a 0.87,0.87 0 0 0 0.29,0.56 1,1 0 0 0 0.65,0.2 0.91,0.91 0 0 0 0.63,-0.18 0.5,0.5 0 0 0 0.21,-0.4 0.38,0.38 0 0 0 -0.18,-0.33 2.89,2.89 0 0 0 -0.63,-0.21 5.73,5.73 0 0 1 -0.94,-0.29 1,1 0 0 1 -0.4,-0.35 0.92,0.92 0 0 1 -0.13,-0.49 1,1 0 0 1 0.11,-0.45 1.08,1.08 0 0 1 0.3,-0.34 1.42,1.42 0 0 1 0.39,-0.18 1.9,1.9 0 0 1 0.54,-0.07 2.09,2.09 0 0 1 0.74,0.12 1,1 0 0 1 0.48,0.33 1.24,1.24 0 0 1 0.21,0.57 l -0.6,0.08 a 0.61,0.61 0 0 0 -0.24,-0.44 0.88,0.88 0 0 0 -0.55,-0.16 1.08,1.08 0 0 0 -0.61,0.14 0.43,0.43 0 0 0 -0.18,0.33 0.37,0.37 0 0 0 0.08,0.22 0.59,0.59 0 0 0 0.23,0.16 l 0.55,0.16 a 7.58,7.58 0 0 1 0.91,0.28 0.94,0.94 0 0 1 0.4,0.33 0.86,0.86 0 0 1 0.15,0.52 1,1 0 0 1 -0.18,0.58 1.16,1.16 0 0 1 -0.52,0.42 1.84,1.84 0 0 1 -0.76,0.15 1.76,1.76 0 0 1 -1.08,-0.29 1.33,1.33 0 0 1 -0.47,-0.87 z"
         transform="translate(-4,-1.09)"
         id="path256" />
      <path
         class="cls-4"
         d="m 145.86,102.42 v -3.15 h -0.54 v -0.48 h 0.54 V 98.4 a 1.76,1.76 0 0 1 0.07,-0.54 0.79,0.79 0 0 1 0.31,-0.39 1.13,1.13 0 0 1 0.63,-0.15 3.07,3.07 0 0 1 0.57,0.06 l -0.09,0.54 h -0.36 a 0.55,0.55 0 0 0 -0.4,0.12 0.63,0.63 0 0 0 -0.11,0.44 v 0.34 h 0.7 v 0.48 h -0.7 v 3.15 z"
         transform="translate(-4,-1.09)"
         id="path257" />
      <path
         class="cls-4"
         d="m 147.65,102.42 v -5 h 0.61 v 5 z"
         transform="translate(-4,-1.09)"
         id="path258" />
      <path
         class="cls-4"
         d="m 149,100.61 a 1.85,1.85 0 0 1 0.56,-1.5 1.67,1.67 0 0 1 1.14,-0.4 1.6,1.6 0 0 1 1.22,0.49 1.86,1.86 0 0 1 0.48,1.35 2.44,2.44 0 0 1 -0.21,1.11 1.58,1.58 0 0 1 -0.61,0.62 1.77,1.77 0 0 1 -0.88,0.22 1.6,1.6 0 0 1 -1.23,-0.49 1.9,1.9 0 0 1 -0.47,-1.4 z m 0.63,0 a 1.56,1.56 0 0 0 0.3,1 1,1 0 0 0 0.77,0.35 1,1 0 0 0 0.76,-0.35 1.57,1.57 0 0 0 0.31,-1.07 1.55,1.55 0 0 0 -0.31,-1 1,1 0 0 0 -0.76,-0.34 1,1 0 0 0 -0.77,0.34 1.57,1.57 0 0 0 -0.31,1.07 z"
         transform="translate(-4,-1.09)"
         id="path259" />
      <path
         class="cls-4"
         d="m 155.48,102 a 2.21,2.21 0 0 1 -0.66,0.41 1.91,1.91 0 0 1 -0.68,0.12 1.35,1.35 0 0 1 -0.92,-0.29 1,1 0 0 1 -0.32,-0.75 1,1 0 0 1 0.1,-0.49 1,1 0 0 1 0.32,-0.36 1.6,1.6 0 0 1 0.44,-0.2 5.21,5.21 0 0 1 0.55,-0.09 6,6 0 0 0 1.1,-0.21 V 100 a 0.67,0.67 0 0 0 -0.17,-0.52 1,1 0 0 0 -0.7,-0.21 1.08,1.08 0 0 0 -0.64,0.15 0.88,0.88 0 0 0 -0.31,0.54 l -0.6,-0.08 a 1.4,1.4 0 0 1 0.27,-0.63 1.08,1.08 0 0 1 0.54,-0.36 2.31,2.31 0 0 1 0.82,-0.13 2,2 0 0 1 0.76,0.11 1,1 0 0 1 0.43,0.27 1,1 0 0 1 0.19,0.42 3.58,3.58 0 0 1 0,0.57 v 0.82 a 7.84,7.84 0 0 0 0,1.08 1.63,1.63 0 0 0 0.15,0.44 h -0.64 A 1.48,1.48 0 0 1 155.48,102 Z m 0,-1.37 a 4.49,4.49 0 0 1 -1,0.23 2.86,2.86 0 0 0 -0.53,0.12 0.63,0.63 0 0 0 -0.25,0.2 0.61,0.61 0 0 0 -0.08,0.3 0.54,0.54 0 0 0 0.18,0.41 0.88,0.88 0 0 0 0.55,0.16 1.18,1.18 0 0 0 0.63,-0.16 0.92,0.92 0 0 0 0.41,-0.42 1.63,1.63 0 0 0 0.1,-0.62 z"
         transform="translate(-4,-1.09)"
         id="path260" />
      <path
         class="cls-4"
         d="m 158.35,101.87 0.09,0.54 a 2.16,2.16 0 0 1 -0.47,0.06 1.06,1.06 0 0 1 -0.52,-0.11 0.59,0.59 0 0 1 -0.26,-0.28 2.18,2.18 0 0 1 -0.07,-0.72 v -2.09 h -0.45 v -0.48 h 0.45 v -0.9 l 0.61,-0.37 v 1.27 h 0.62 v 0.48 h -0.62 v 2.12 a 1.15,1.15 0 0 0 0,0.34 0.25,0.25 0 0 0 0.11,0.12 0.41,0.41 0 0 0 0.21,0 1.53,1.53 0 0 0 0.3,0.02 z"
         transform="translate(-4,-1.09)"
         id="path261" />
      <path
         d="m 159.35,103.89 h -0.44 a 5.82,5.82 0 0 0 0.88,-4.56 5.38,5.38 0 0 0 -0.33,-1 10.75,10.75 0 0 0 -0.55,-1 h 0.44 a 6.47,6.47 0 0 1 1,1.73 4.48,4.48 0 0 1 0.26,1.56 4.59,4.59 0 0 1 -0.35,1.78 6.4,6.4 0 0 1 -0.91,1.49 z"
         transform="translate(-4,-1.09)"
         id="path262" />
    </g>
    <g
       id="g283">
      <path
         d="m 220.71,92.26 0.66,0.17 a 2.29,2.29 0 0 1 -0.75,1.25 2.1,2.1 0 0 1 -1.33,0.43 2.44,2.44 0 0 1 -1.31,-0.33 2,2 0 0 1 -0.77,-1 3.38,3.38 0 0 1 -0.27,-1.34 2.94,2.94 0 0 1 0.3,-1.37 2,2 0 0 1 0.85,-0.88 2.41,2.41 0 0 1 1.22,-0.31 2,2 0 0 1 1.26,0.39 1.94,1.94 0 0 1 0.71,1.07 l -0.65,0.16 a 1.51,1.51 0 0 0 -0.5,-0.8 1.35,1.35 0 0 0 -0.84,-0.25 1.56,1.56 0 0 0 -1,0.28 1.47,1.47 0 0 0 -0.55,0.74 3.12,3.12 0 0 0 -0.16,1 3.16,3.16 0 0 0 0.19,1.12 1.37,1.37 0 0 0 0.58,0.71 1.61,1.61 0 0 0 0.85,0.24 1.43,1.43 0 0 0 0.94,-0.32 1.67,1.67 0 0 0 0.57,-0.96 z"
         transform="translate(-4,-1.09)"
         id="path263" />
      <path
         d="m 221.88,92.2 a 1.87,1.87 0 0 1 0.56,-1.49 1.67,1.67 0 0 1 1.14,-0.4 1.6,1.6 0 0 1 1.22,0.49 1.84,1.84 0 0 1 0.48,1.35 2.44,2.44 0 0 1 -0.21,1.11 1.52,1.52 0 0 1 -0.61,0.62 1.77,1.77 0 0 1 -0.88,0.22 1.6,1.6 0 0 1 -1.23,-0.49 2,2 0 0 1 -0.47,-1.41 z m 0.63,0 a 1.51,1.51 0 0 0 0.31,1 1,1 0 0 0 1.52,0 1.57,1.57 0 0 0 0.31,-1.07 1.48,1.48 0 0 0 -0.31,-1 1,1 0 0 0 -0.76,-0.34 1,1 0 0 0 -0.76,0.34 1.5,1.5 0 0 0 -0.31,1.07 z"
         transform="translate(-4,-1.09)"
         id="path264" />
      <path
         d="m 226,94 v -3.61 h 0.55 v 0.51 a 1.35,1.35 0 0 1 0.46,-0.43 1.24,1.24 0 0 1 0.64,-0.16 1.2,1.2 0 0 1 0.66,0.16 0.9,0.9 0 0 1 0.37,0.47 1.3,1.3 0 0 1 1.12,-0.63 1.1,1.1 0 0 1 0.83,0.3 1.28,1.28 0 0 1 0.29,0.92 V 94 h -0.61 v -2.27 a 1.7,1.7 0 0 0 -0.06,-0.53 0.5,0.5 0 0 0 -0.22,-0.26 0.64,0.64 0 0 0 -0.37,-0.1 0.84,0.84 0 0 0 -0.63,0.26 1.09,1.09 0 0 0 -0.26,0.81 V 94 h -0.61 v -2.34 a 1,1 0 0 0 -0.15,-0.61 0.57,0.57 0 0 0 -0.49,-0.21 0.87,0.87 0 0 0 -0.52,0.16 0.71,0.71 0 0 0 -0.32,0.4 2.14,2.14 0 0 0 -0.1,0.76 V 94 Z"
         transform="translate(-4,-1.09)"
         id="path265" />
      <path
         d="m 231.83,95.41 v -5 h 0.56 v 0.47 a 1.44,1.44 0 0 1 0.45,-0.41 1.17,1.17 0 0 1 0.61,-0.14 1.44,1.44 0 0 1 0.82,0.24 1.49,1.49 0 0 1 0.53,0.67 2.49,2.49 0 0 1 0.18,1 2.32,2.32 0 0 1 -0.2,1 1.39,1.39 0 0 1 -0.58,0.68 1.47,1.47 0 0 1 -0.8,0.24 1.12,1.12 0 0 1 -0.55,-0.13 1.18,1.18 0 0 1 -0.4,-0.33 v 1.77 z m 0.56,-3.19 a 1.58,1.58 0 0 0 0.28,1 0.87,0.87 0 0 0 1.39,0 2.11,2.11 0 0 0 0,-2.12 0.86,0.86 0 0 0 -0.68,-0.34 0.87,0.87 0 0 0 -0.7,0.37 1.63,1.63 0 0 0 -0.29,1.09 z"
         transform="translate(-4,-1.09)"
         id="path266" />
      <path
         d="m 235.71,94 v -5 h 0.62 v 5 z"
         transform="translate(-4,-1.09)"
         id="path267" />
      <path
         d="m 239.77,92.85 0.63,0.08 a 1.49,1.49 0 0 1 -0.56,0.86 1.88,1.88 0 0 1 -2.3,-0.18 1.91,1.91 0 0 1 -0.46,-1.37 2,2 0 0 1 0.47,-1.43 1.61,1.61 0 0 1 1.22,-0.5 1.55,1.55 0 0 1 1.19,0.49 2,2 0 0 1 0.46,1.4 v 0.16 h -2.71 a 1.4,1.4 0 0 0 0.34,0.92 1,1 0 0 0 0.76,0.32 1,1 0 0 0 0.58,-0.18 1.24,1.24 0 0 0 0.38,-0.57 z m -2,-1 h 2 a 1.15,1.15 0 0 0 -0.23,-0.69 0.94,0.94 0 0 0 -0.76,-0.36 1,1 0 0 0 -0.71,0.29 1.09,1.09 0 0 0 -0.32,0.77 z"
         transform="translate(-4,-1.09)"
         id="path268" />
      <path
         d="m 240.76,94 1.33,-1.89 -1.23,-1.74 h 0.77 l 0.56,0.85 c 0.1,0.16 0.19,0.3 0.25,0.41 0.1,-0.15 0.19,-0.29 0.28,-0.4 l 0.61,-0.86 h 0.74 l -1.26,1.71 1.35,1.92 h -0.75 l -0.75,-1.13 -0.2,-0.3 -1,1.43 z"
         transform="translate(-4,-1.09)"
         id="path269" />
      <path
         d="m 207.73,103.89 a 6.06,6.06 0 0 1 -0.86,-1.5 4.59,4.59 0 0 1 -0.35,-1.78 4.48,4.48 0 0 1 0.26,-1.56 6.47,6.47 0 0 1 0.95,-1.73 h 0.44 c -0.28,0.48 -0.46,0.82 -0.55,1 a 5.38,5.38 0 0 0 -0.33,1 6.29,6.29 0 0 0 -0.14,1.29 6.17,6.17 0 0 0 1,3.28 z"
         transform="translate(-4,-1.09)"
         id="path270" />
      <path
         d="m 211.25,101.09 0.61,0.08 a 1.61,1.61 0 0 1 -0.51,1 1.5,1.5 0 0 1 -1,0.35 1.54,1.54 0 0 1 -1.2,-0.49 2,2 0 0 1 -0.45,-1.39 2.53,2.53 0 0 1 0.19,-1 1.41,1.41 0 0 1 0.59,-0.66 1.76,1.76 0 0 1 0.87,-0.22 1.52,1.52 0 0 1 1,0.3 1.36,1.36 0 0 1 0.48,0.85 l -0.6,0.09 a 1,1 0 0 0 -0.3,-0.55 0.82,0.82 0 0 0 -0.53,-0.19 1,1 0 0 0 -0.75,0.34 1.53,1.53 0 0 0 -0.29,1 1.6,1.6 0 0 0 0.28,1.06 0.94,0.94 0 0 0 1.34,0.11 1.05,1.05 0 0 0 0.27,-0.68 z"
         transform="translate(-4,-1.09)"
         id="path271" />
      <path
         d="m 212.37,102.42 v -5 H 213 v 5 z"
         transform="translate(-4,-1.09)"
         id="path272" />
      <path
         d="m 216.31,102 a 2.21,2.21 0 0 1 -0.66,0.41 1.91,1.91 0 0 1 -0.68,0.12 1.35,1.35 0 0 1 -0.92,-0.29 1,1 0 0 1 -0.32,-0.75 1,1 0 0 1 0.12,-0.48 1,1 0 0 1 0.32,-0.36 1.6,1.6 0 0 1 0.44,-0.2 5.21,5.21 0 0 1 0.55,-0.09 6,6 0 0 0 1.1,-0.21 V 100 a 0.67,0.67 0 0 0 -0.17,-0.52 1,1 0 0 0 -0.71,-0.21 1.12,1.12 0 0 0 -0.64,0.15 0.93,0.93 0 0 0 -0.3,0.54 l -0.6,-0.08 a 1.4,1.4 0 0 1 0.27,-0.63 1.08,1.08 0 0 1 0.54,-0.36 2.31,2.31 0 0 1 0.82,-0.13 2,2 0 0 1 0.76,0.11 1,1 0 0 1 0.43,0.27 1,1 0 0 1 0.19,0.42 3.58,3.58 0 0 1 0,0.57 v 0.82 a 7.84,7.84 0 0 0 0,1.08 1.35,1.35 0 0 0 0.15,0.44 h -0.64 A 1.48,1.48 0 0 1 216.31,102 Z m -0.05,-1.37 a 4.49,4.49 0 0 1 -1,0.23 3.25,3.25 0 0 0 -0.54,0.12 0.68,0.68 0 0 0 -0.24,0.2 0.61,0.61 0 0 0 -0.08,0.3 0.54,0.54 0 0 0 0.18,0.41 0.88,0.88 0 0 0 0.55,0.16 1.18,1.18 0 0 0 0.63,-0.16 0.92,0.92 0 0 0 0.41,-0.42 1.63,1.63 0 0 0 0.1,-0.62 z"
         transform="translate(-4,-1.09)"
         id="path273" />
      <path
         d="m 217.59,101.34 0.6,-0.1 a 0.87,0.87 0 0 0 0.29,0.56 1,1 0 0 0 0.65,0.2 0.91,0.91 0 0 0 0.63,-0.18 0.5,0.5 0 0 0 0.21,-0.4 0.38,0.38 0 0 0 -0.18,-0.33 2.89,2.89 0 0 0 -0.63,-0.21 5.73,5.73 0 0 1 -0.94,-0.29 1,1 0 0 1 -0.4,-0.35 0.92,0.92 0 0 1 -0.13,-0.49 1,1 0 0 1 0.11,-0.45 1,1 0 0 1 0.3,-0.34 1.42,1.42 0 0 1 0.39,-0.18 1.9,1.9 0 0 1 0.54,-0.07 2.19,2.19 0 0 1 0.75,0.12 1,1 0 0 1 0.47,0.33 1.24,1.24 0 0 1 0.21,0.57 l -0.6,0.08 a 0.65,0.65 0 0 0 -0.24,-0.44 0.88,0.88 0 0 0 -0.55,-0.16 1.05,1.05 0 0 0 -0.61,0.14 0.43,0.43 0 0 0 -0.18,0.33 0.37,0.37 0 0 0 0.08,0.22 0.59,0.59 0 0 0 0.23,0.16 l 0.55,0.16 a 7.58,7.58 0 0 1 0.91,0.28 0.94,0.94 0 0 1 0.4,0.33 0.86,0.86 0 0 1 0.15,0.52 1,1 0 0 1 -0.18,0.58 1.16,1.16 0 0 1 -0.52,0.42 1.84,1.84 0 0 1 -0.76,0.15 1.76,1.76 0 0 1 -1.08,-0.29 1.33,1.33 0 0 1 -0.47,-0.87 z"
         transform="translate(-4,-1.09)"
         id="path274" />
      <path
         d="m 221.09,101.34 0.6,-0.1 a 0.87,0.87 0 0 0 0.29,0.56 1,1 0 0 0 0.65,0.2 0.91,0.91 0 0 0 0.63,-0.18 0.5,0.5 0 0 0 0.21,-0.4 0.38,0.38 0 0 0 -0.18,-0.33 2.89,2.89 0 0 0 -0.63,-0.21 5.73,5.73 0 0 1 -0.94,-0.29 1,1 0 0 1 -0.4,-0.35 0.92,0.92 0 0 1 -0.13,-0.49 1,1 0 0 1 0.11,-0.45 1,1 0 0 1 0.3,-0.34 1.42,1.42 0 0 1 0.39,-0.18 1.9,1.9 0 0 1 0.54,-0.07 2.19,2.19 0 0 1 0.75,0.12 1,1 0 0 1 0.47,0.33 1.24,1.24 0 0 1 0.21,0.57 l -0.6,0.08 a 0.65,0.65 0 0 0 -0.24,-0.44 0.88,0.88 0 0 0 -0.55,-0.16 1.05,1.05 0 0 0 -0.61,0.14 0.43,0.43 0 0 0 -0.18,0.33 0.37,0.37 0 0 0 0.08,0.22 0.59,0.59 0 0 0 0.23,0.16 l 0.55,0.16 a 7.58,7.58 0 0 1 0.91,0.28 0.94,0.94 0 0 1 0.4,0.33 0.86,0.86 0 0 1 0.15,0.52 1,1 0 0 1 -0.18,0.58 1.16,1.16 0 0 1 -0.52,0.42 1.84,1.84 0 0 1 -0.76,0.15 1.76,1.76 0 0 1 -1.08,-0.29 1.33,1.33 0 0 1 -0.47,-0.87 z"
         transform="translate(-4,-1.09)"
         id="path275" />
      <path
         class="cls-4"
         d="m 229.15,101.09 0.6,0.08 a 1.56,1.56 0 0 1 -0.51,1 1.49,1.49 0 0 1 -1,0.35 1.54,1.54 0 0 1 -1.24,-0.52 2,2 0 0 1 -0.45,-1.39 2.53,2.53 0 0 1 0.19,-1 1.38,1.38 0 0 1 0.6,-0.66 1.69,1.69 0 0 1 0.86,-0.22 1.5,1.5 0 0 1 1,0.3 1.36,1.36 0 0 1 0.48,0.85 l -0.6,0.09 a 0.89,0.89 0 0 0 -0.3,-0.55 0.79,0.79 0 0 0 -0.52,-0.19 1,1 0 0 0 -0.76,0.34 2.1,2.1 0 0 0 0,2.11 0.9,0.9 0 0 0 0.73,0.34 0.87,0.87 0 0 0 0.61,-0.23 1.11,1.11 0 0 0 0.31,-0.7 z"
         transform="translate(-4,-1.09)"
         id="path276" />
      <path
         class="cls-4"
         d="m 230.05,100.61 a 1.88,1.88 0 0 1 0.56,-1.5 1.67,1.67 0 0 1 1.14,-0.4 1.6,1.6 0 0 1 1.22,0.49 1.86,1.86 0 0 1 0.48,1.35 2.44,2.44 0 0 1 -0.21,1.11 1.58,1.58 0 0 1 -0.61,0.62 1.77,1.77 0 0 1 -0.88,0.22 1.6,1.6 0 0 1 -1.23,-0.49 1.94,1.94 0 0 1 -0.47,-1.4 z m 0.63,0 a 1.56,1.56 0 0 0 0.3,1 1,1 0 0 0 0.77,0.35 1,1 0 0 0 0.76,-0.35 1.63,1.63 0 0 0 0.31,-1.07 1.55,1.55 0 0 0 -0.31,-1 1,1 0 0 0 -0.76,-0.34 1,1 0 0 0 -0.77,0.34 1.57,1.57 0 0 0 -0.3,1.07 z"
         transform="translate(-4,-1.09)"
         id="path277" />
      <path
         class="cls-4"
         d="m 234.17,102.42 v -3.63 h 0.55 v 0.51 a 1.32,1.32 0 0 1 0.45,-0.43 1.28,1.28 0 0 1 0.65,-0.16 1.2,1.2 0 0 1 0.66,0.16 1,1 0 0 1 0.37,0.47 1.3,1.3 0 0 1 1.12,-0.63 1.11,1.11 0 0 1 0.83,0.3 1.28,1.28 0 0 1 0.29,0.92 v 2.49 h -0.61 v -2.29 a 1.7,1.7 0 0 0 -0.06,-0.53 0.55,0.55 0 0 0 -0.22,-0.26 0.66,0.66 0 0 0 -0.37,-0.1 0.84,0.84 0 0 0 -0.63,0.26 1.11,1.11 0 0 0 -0.26,0.81 v 2.11 h -0.61 v -2.36 a 1,1 0 0 0 -0.15,-0.61 0.58,0.58 0 0 0 -0.5,-0.21 0.92,0.92 0 0 0 -0.48,0.14 0.81,0.81 0 0 0 -0.32,0.4 2.45,2.45 0 0 0 -0.09,0.76 v 1.88 z"
         transform="translate(-4,-1.09)"
         id="path278" />
      <path
         class="cls-4"
         d="m 240,103.81 v -5 h 0.56 v 0.47 a 1.34,1.34 0 0 1 0.45,-0.41 1.16,1.16 0 0 1 0.6,-0.14 1.41,1.41 0 0 1 0.82,0.24 1.44,1.44 0 0 1 0.54,0.67 2.49,2.49 0 0 1 0.18,1 2.32,2.32 0 0 1 -0.2,1 1.39,1.39 0 0 1 -0.58,0.68 1.47,1.47 0 0 1 -0.8,0.24 1.12,1.12 0 0 1 -0.55,-0.13 1.18,1.18 0 0 1 -0.4,-0.33 v 1.77 z m 0.56,-3.19 a 1.58,1.58 0 0 0 0.28,1 0.87,0.87 0 0 0 1.39,0 2.11,2.11 0 0 0 0,-2.12 0.86,0.86 0 0 0 -0.68,-0.34 0.87,0.87 0 0 0 -0.7,0.37 1.63,1.63 0 0 0 -0.29,1.09 z"
         transform="translate(-4,-1.09)"
         id="path279" />
      <path
         class="cls-4"
         d="m 243.88,102.42 v -5 h 0.62 v 5 z"
         transform="translate(-4,-1.09)"
         id="path280" />
      <path
         class="cls-4"
         d="m 247.93,101.25 0.64,0.08 a 1.53,1.53 0 0 1 -0.56,0.86 1.88,1.88 0 0 1 -2.3,-0.18 1.91,1.91 0 0 1 -0.47,-1.37 2,2 0 0 1 0.48,-1.43 1.61,1.61 0 0 1 1.22,-0.5 1.56,1.56 0 0 1 1.19,0.49 2,2 0 0 1 0.46,1.4 v 0.16 h -2.71 a 1.4,1.4 0 0 0 0.34,0.92 1,1 0 0 0 0.76,0.32 0.9,0.9 0 0 0 0.57,-0.18 1.17,1.17 0 0 0 0.38,-0.57 z m -2,-1 h 2 a 1.22,1.22 0 0 0 -0.23,-0.69 0.94,0.94 0 0 0 -0.76,-0.36 1,1 0 0 0 -0.72,0.29 1.13,1.13 0 0 0 -0.31,0.77 z"
         transform="translate(-4,-1.09)"
         id="path281" />
      <path
         class="cls-4"
         d="m 248.93,102.42 1.33,-1.89 -1.26,-1.74 h 0.77 l 0.56,0.85 c 0.1,0.16 0.19,0.3 0.25,0.41 0.1,-0.15 0.19,-0.29 0.28,-0.4 l 0.61,-0.86 h 0.73 l -1.2,1.71 1.35,1.92 h -0.76 l -0.74,-1.13 -0.2,-0.3 -0.95,1.43 z"
         transform="translate(-4,-1.09)"
         id="path282" />
      <path
         d="m 253.25,103.89 h -0.45 a 6.1,6.1 0 0 0 1,-3.28 5.53,5.53 0 0 0 -0.15,-1.28 6.24,6.24 0 0 0 -0.32,-1 11.55,11.55 0 0 0 -0.56,-1 h 0.45 a 7.08,7.08 0 0 1 0.95,1.73 4.73,4.73 0 0 1 0.26,1.56 4.78,4.78 0 0 1 -0.35,1.78 6.77,6.77 0 0 1 -0.83,1.49 z"
         transform="translate(-4,-1.09)"
         id="path283" />
    </g>
    <g
       id="Integral">
      <g
         id="g302">
        <path
           d="m 77.33,117.77 v -5 h 1.88 a 2.35,2.35 0 0 1 0.92,0.15 1.25,1.25 0 0 1 0.55,0.47 1.23,1.23 0 0 1 0.19,0.66 1.19,1.19 0 0 1 -0.17,0.61 1.25,1.25 0 0 1 -0.53,0.45 1.26,1.26 0 0 1 0.7,0.46 1.24,1.24 0 0 1 0.25,0.76 1.44,1.44 0 0 1 -0.12,0.67 1.27,1.27 0 0 1 -0.37,0.47 1.64,1.64 0 0 1 -0.55,0.25 3.69,3.69 0 0 1 -0.81,0.08 z m 0.66,-2.91 h 1.09 a 2.46,2.46 0 0 0 0.63,0 0.71,0.71 0 0 0 0.38,-0.25 0.72,0.72 0 0 0 0.13,-0.44 0.81,0.81 0 0 0 -0.12,-0.44 0.6,0.6 0 0 0 -0.34,-0.26 A 2.71,2.71 0 0 0 79,113.4 h -1 z m 0,2.32 h 1.25 a 2.2,2.2 0 0 0 0.45,0 1.05,1.05 0 0 0 0.39,-0.13 0.85,0.85 0 0 0 0.25,-0.28 0.9,0.9 0 0 0 0,-0.91 0.72,0.72 0 0 0 -0.39,-0.29 2.4,2.4 0 0 0 -0.74,-0.08 H 78 Z"
           transform="translate(-4,-1.09)"
           id="path284" />
        <path
           d="m 81.72,116 a 1.87,1.87 0 0 1 0.56,-1.49 1.67,1.67 0 0 1 1.14,-0.4 1.63,1.63 0 0 1 1.23,0.49 1.9,1.9 0 0 1 0.47,1.35 2.44,2.44 0 0 1 -0.21,1.11 1.52,1.52 0 0 1 -0.61,0.62 1.77,1.77 0 0 1 -0.88,0.22 1.6,1.6 0 0 1 -1.23,-0.49 2,2 0 0 1 -0.47,-1.41 z m 0.63,0 a 1.51,1.51 0 0 0 0.31,1 1,1 0 0 0 1.52,0 1.57,1.57 0 0 0 0.31,-1.07 1.5,1.5 0 0 0 -0.31,-1 1,1 0 0 0 -1.52,0 1.5,1.5 0 0 0 -0.31,1.07 z"
           transform="translate(-4,-1.09)"
           id="path285" />
        <path
           d="m 85.61,116 a 1.87,1.87 0 0 1 0.56,-1.49 1.71,1.71 0 0 1 1.15,-0.4 1.63,1.63 0 0 1 1.22,0.49 1.85,1.85 0 0 1 0.46,1.3 2.44,2.44 0 0 1 -0.2,1.1 1.52,1.52 0 0 1 -0.61,0.62 1.76,1.76 0 0 1 -0.87,0.22 1.64,1.64 0 0 1 -1.24,-0.49 2,2 0 0 1 -0.47,-1.35 z m 0.64,0 a 1.57,1.57 0 0 0 0.3,1 1,1 0 0 0 1.53,0 1.63,1.63 0 0 0 0.3,-1.07 1.55,1.55 0 0 0 -0.3,-1 1,1 0 0 0 -1.53,0 1.56,1.56 0 0 0 -0.3,1.07 z"
           transform="translate(-4,-1.09)"
           id="path286" />
        <path
           d="m 89.72,117.77 v -5 h 0.62 v 5 z"
           transform="translate(-4,-1.09)"
           id="path287" />
        <path
           d="m 93.78,116.6 0.63,0.08 a 1.53,1.53 0 0 1 -0.56,0.86 1.88,1.88 0 0 1 -2.3,-0.18 1.91,1.91 0 0 1 -0.46,-1.37 2,2 0 0 1 0.47,-1.43 1.61,1.61 0 0 1 1.22,-0.5 1.55,1.55 0 0 1 1.19,0.49 2,2 0 0 1 0.46,1.4 v 0.16 h -2.71 a 1.4,1.4 0 0 0 0.34,0.92 1,1 0 0 0 0.76,0.32 1,1 0 0 0 0.58,-0.18 1.24,1.24 0 0 0 0.38,-0.57 z m -2,-1 h 2 a 1.22,1.22 0 0 0 -0.23,-0.69 0.94,0.94 0 0 0 -0.76,-0.36 1,1 0 0 0 -0.71,0.29 1.09,1.09 0 0 0 -0.32,0.77 z"
           transform="translate(-4,-1.09)"
           id="path288" />
        <path
           d="m 97.55,117.32 a 2.21,2.21 0 0 1 -0.66,0.41 1.85,1.85 0 0 1 -0.67,0.12 1.33,1.33 0 0 1 -0.92,-0.29 1,1 0 0 1 -0.32,-0.75 1,1 0 0 1 0.12,-0.48 1,1 0 0 1 0.31,-0.36 1.67,1.67 0 0 1 0.45,-0.2 4.93,4.93 0 0 1 0.54,-0.09 5.78,5.78 0 0 0 1.1,-0.21 v -0.16 a 0.65,0.65 0 0 0 -0.17,-0.53 1,1 0 0 0 -0.7,-0.21 1.1,1.1 0 0 0 -0.64,0.15 0.93,0.93 0 0 0 -0.31,0.54 l -0.6,-0.08 a 1.67,1.67 0 0 1 0.27,-0.63 1.17,1.17 0 0 1 0.54,-0.36 2.37,2.37 0 0 1 0.83,-0.13 2,2 0 0 1 0.75,0.11 0.94,0.94 0 0 1 0.43,0.27 0.9,0.9 0 0 1 0.19,0.42 3.67,3.67 0 0 1 0,0.57 v 0.82 a 10,10 0 0 0 0,1.08 1.37,1.37 0 0 0 0.16,0.44 h -0.64 a 1.25,1.25 0 0 1 -0.06,-0.45 z m 0,-1.37 a 4.38,4.38 0 0 1 -1,0.23 2.81,2.81 0 0 0 -0.54,0.12 0.54,0.54 0 0 0 -0.24,0.2 0.53,0.53 0 0 0 -0.09,0.3 0.52,0.52 0 0 0 0.19,0.41 0.83,0.83 0 0 0 0.54,0.16 1.24,1.24 0 0 0 0.64,-0.16 0.9,0.9 0 0 0 0.4,-0.42 1.45,1.45 0 0 0 0.1,-0.62 z"
           transform="translate(-4,-1.09)"
           id="path289" />
        <path
           d="m 99.08,117.77 v -3.63 h 0.55 v 0.52 a 1.31,1.31 0 0 1 1.16,-0.6 1.5,1.5 0 0 1 0.6,0.12 0.88,0.88 0 0 1 0.41,0.31 1,1 0 0 1 0.19,0.45 2.74,2.74 0 0 1 0,0.6 v 2.23 h -0.62 v -2.21 a 1.58,1.58 0 0 0 -0.07,-0.56 0.62,0.62 0 0 0 -0.26,-0.3 0.82,0.82 0 0 0 -0.42,-0.11 1,1 0 0 0 -0.68,0.25 1.24,1.24 0 0 0 -0.29,1 v 2 z"
           transform="translate(-4,-1.09)"
           id="path290" />
        <path
           d="m 102.72,116.69 0.61,-0.1 a 0.87,0.87 0 0 0 0.29,0.56 1,1 0 0 0 0.65,0.2 1,1 0 0 0 0.63,-0.18 0.5,0.5 0 0 0 0.21,-0.4 0.37,0.37 0 0 0 -0.19,-0.33 3.11,3.11 0 0 0 -0.62,-0.21 5.42,5.42 0 0 1 -0.94,-0.29 0.89,0.89 0 0 1 -0.53,-0.84 0.88,0.88 0 0 1 0.11,-0.45 1,1 0 0 1 0.3,-0.34 1.42,1.42 0 0 1 0.39,-0.18 1.83,1.83 0 0 1 0.53,-0.07 2.11,2.11 0 0 1 0.75,0.12 1,1 0 0 1 0.48,0.33 1.36,1.36 0 0 1 0.21,0.57 l -0.6,0.08 a 0.69,0.69 0 0 0 -0.24,-0.44 0.88,0.88 0 0 0 -0.55,-0.16 1,1 0 0 0 -0.61,0.14 0.43,0.43 0 0 0 -0.18,0.33 0.37,0.37 0 0 0 0.08,0.22 0.52,0.52 0 0 0 0.23,0.16 c 0.06,0 0.24,0.08 0.55,0.16 a 8.24,8.24 0 0 1 0.91,0.28 1,1 0 0 1 0.4,0.33 0.86,0.86 0 0 1 0.15,0.52 1,1 0 0 1 -0.18,0.58 1.16,1.16 0 0 1 -0.52,0.42 1.84,1.84 0 0 1 -0.76,0.15 1.72,1.72 0 0 1 -1.08,-0.29 1.39,1.39 0 0 1 -0.48,-0.87 z"
           transform="translate(-4,-1.09)"
           id="path291" />
        <path
           d="m 75.16,127.64 a 6.22,6.22 0 0 1 -0.87,-1.5 4.78,4.78 0 0 1 -0.35,-1.78 4.49,4.49 0 0 1 0.27,-1.56 6.47,6.47 0 0 1 1,-1.73 h 0.44 c -0.28,0.48 -0.46,0.82 -0.55,1 a 5.38,5.38 0 0 0 -0.33,1 5.68,5.68 0 0 0 -0.15,1.29 6.18,6.18 0 0 0 1,3.28 z"
           transform="translate(-4,-1.09)"
           id="path292" />
        <path
           d="m 78.68,124.84 0.6,0.08 a 1.55,1.55 0 0 1 -0.5,1 1.66,1.66 0 0 1 -2.2,-0.14 1.93,1.93 0 0 1 -0.46,-1.39 2.52,2.52 0 0 1 0.2,-1 1.41,1.41 0 0 1 0.59,-0.66 1.76,1.76 0 0 1 0.87,-0.22 1.49,1.49 0 0 1 1,0.3 1.33,1.33 0 0 1 0.49,0.85 l -0.6,0.09 a 1,1 0 0 0 -0.3,-0.55 0.82,0.82 0 0 0 -0.53,-0.19 1,1 0 0 0 -0.75,0.34 1.53,1.53 0 0 0 -0.29,1 1.6,1.6 0 0 0 0.28,1.06 0.88,0.88 0 0 0 0.73,0.34 0.85,0.85 0 0 0 0.6,-0.23 1.06,1.06 0 0 0 0.27,-0.68 z"
           transform="translate(-4,-1.09)"
           id="path293" />
        <path
           d="m 79.8,126.17 v -5 h 0.61 v 5 z"
           transform="translate(-4,-1.09)"
           id="path294" />
        <path
           d="m 83.73,125.72 a 2.06,2.06 0 0 1 -0.65,0.41 1.91,1.91 0 0 1 -0.68,0.12 1.33,1.33 0 0 1 -0.92,-0.29 1,1 0 0 1 -0.32,-0.75 1,1 0 0 1 0.12,-0.48 1,1 0 0 1 0.32,-0.36 1.6,1.6 0 0 1 0.44,-0.2 4.79,4.79 0 0 1 0.55,-0.09 5.81,5.81 0 0 0 1.09,-0.21 1.36,1.36 0 0 0 0,-0.16 0.66,0.66 0 0 0 -0.18,-0.53 1,1 0 0 0 -0.7,-0.21 1.1,1.1 0 0 0 -0.64,0.15 0.88,0.88 0 0 0 -0.3,0.54 l -0.61,-0.08 a 1.67,1.67 0 0 1 0.27,-0.63 1.15,1.15 0 0 1 0.55,-0.36 2.28,2.28 0 0 1 0.82,-0.13 2.07,2.07 0 0 1 0.76,0.11 1,1 0 0 1 0.42,0.27 0.9,0.9 0 0 1 0.19,0.42 2.48,2.48 0 0 1 0,0.57 v 0.82 a 7.84,7.84 0 0 0 0,1.08 1.15,1.15 0 0 0 0.15,0.44 h -0.64 a 1.25,1.25 0 0 1 -0.04,-0.45 z m 0,-1.37 a 4.25,4.25 0 0 1 -1,0.23 3.25,3.25 0 0 0 -0.54,0.12 0.68,0.68 0 0 0 -0.24,0.2 0.53,0.53 0 0 0 -0.09,0.3 0.55,0.55 0 0 0 0.19,0.41 0.8,0.8 0 0 0 0.55,0.16 1.23,1.23 0 0 0 0.63,-0.16 0.9,0.9 0 0 0 0.4,-0.42 1.42,1.42 0 0 0 0.1,-0.62 z"
           transform="translate(-4,-1.09)"
           id="path295" />
        <path
           d="m 85,125.09 0.61,-0.1 a 0.87,0.87 0 0 0 0.29,0.56 1,1 0 0 0 0.65,0.2 1,1 0 0 0 0.63,-0.18 0.5,0.5 0 0 0 0.21,-0.4 0.39,0.39 0 0 0 -0.19,-0.33 3.11,3.11 0 0 0 -0.62,-0.21 5.42,5.42 0 0 1 -0.94,-0.29 0.89,0.89 0 0 1 -0.53,-0.84 0.88,0.88 0 0 1 0.11,-0.45 1,1 0 0 1 0.3,-0.34 1.29,1.29 0 0 1 0.39,-0.18 1.83,1.83 0 0 1 0.53,-0.07 2.11,2.11 0 0 1 0.75,0.12 1,1 0 0 1 0.48,0.33 1.36,1.36 0 0 1 0.21,0.57 l -0.6,0.08 a 0.69,0.69 0 0 0 -0.24,-0.44 0.88,0.88 0 0 0 -0.55,-0.16 1,1 0 0 0 -0.61,0.14 0.43,0.43 0 0 0 -0.18,0.33 0.37,0.37 0 0 0 0.08,0.22 0.52,0.52 0 0 0 0.23,0.16 l 0.54,0.16 c 0.44,0.12 0.74,0.21 0.92,0.28 a 1,1 0 0 1 0.4,0.33 0.86,0.86 0 0 1 0.15,0.52 1,1 0 0 1 -0.18,0.58 1.16,1.16 0 0 1 -0.52,0.42 1.89,1.89 0 0 1 -0.77,0.15 1.71,1.71 0 0 1 -1.07,-0.29 1.39,1.39 0 0 1 -0.48,-0.87 z"
           transform="translate(-4,-1.09)"
           id="path296" />
        <path
           d="m 88.51,125.09 0.61,-0.1 a 0.87,0.87 0 0 0 0.29,0.56 1,1 0 0 0 0.65,0.2 1,1 0 0 0 0.63,-0.18 0.5,0.5 0 0 0 0.21,-0.4 0.39,0.39 0 0 0 -0.19,-0.33 3.11,3.11 0 0 0 -0.62,-0.21 5.42,5.42 0 0 1 -0.94,-0.29 0.89,0.89 0 0 1 -0.53,-0.84 0.88,0.88 0 0 1 0.11,-0.45 1,1 0 0 1 0.3,-0.34 1.29,1.29 0 0 1 0.39,-0.18 1.83,1.83 0 0 1 0.53,-0.07 2.11,2.11 0 0 1 0.75,0.12 1,1 0 0 1 0.48,0.33 1.36,1.36 0 0 1 0.21,0.57 l -0.6,0.08 A 0.69,0.69 0 0 0 90.55,123.12 0.88,0.88 0 0 0 90,123 a 1,1 0 0 0 -0.61,0.14 0.43,0.43 0 0 0 -0.18,0.33 0.37,0.37 0 0 0 0.08,0.22 0.52,0.52 0 0 0 0.23,0.16 l 0.54,0.16 c 0.44,0.12 0.74,0.21 0.92,0.28 a 1,1 0 0 1 0.4,0.33 0.86,0.86 0 0 1 0.15,0.52 1,1 0 0 1 -0.18,0.58 1.16,1.16 0 0 1 -0.52,0.42 1.89,1.89 0 0 1 -0.77,0.15 A 1.71,1.71 0 0 1 89,126 1.39,1.39 0 0 1 88.51,125.09 Z"
           transform="translate(-4,-1.09)"
           id="path297" />
        <path
           class="cls-4"
           d="M 94.77,126.17 H 94.2 v -5 h 0.62 V 123 a 1.2,1.2 0 0 1 1,-0.49 1.48,1.48 0 0 1 0.63,0.13 1.36,1.36 0 0 1 0.5,0.38 1.82,1.82 0 0 1 0.3,0.59 2.55,2.55 0 0 1 0.11,0.74 2.11,2.11 0 0 1 -0.46,1.44 1.45,1.45 0 0 1 -1.11,0.51 1.18,1.18 0 0 1 -1,-0.53 z m 0,-1.84 a 1.85,1.85 0 0 0 0.18,0.94 0.88,0.88 0 0 0 1.49,0.13 1.66,1.66 0 0 0 0.29,-1.05 1.63,1.63 0 0 0 -0.28,-1 0.86,0.86 0 0 0 -1.38,0 1.55,1.55 0 0 0 -0.31,0.98 z"
           transform="translate(-4,-1.09)"
           id="path298" />
        <path
           class="cls-4"
           d="m 97.87,124.36 a 1.88,1.88 0 0 1 0.56,-1.5 1.67,1.67 0 0 1 1.14,-0.4 1.6,1.6 0 0 1 1.22,0.49 1.86,1.86 0 0 1 0.48,1.35 2.44,2.44 0 0 1 -0.21,1.11 1.58,1.58 0 0 1 -0.61,0.62 1.77,1.77 0 0 1 -0.88,0.22 1.6,1.6 0 0 1 -1.23,-0.49 1.9,1.9 0 0 1 -0.47,-1.4 z m 0.63,0 a 1.56,1.56 0 0 0 0.3,1 1,1 0 0 0 0.77,0.35 1,1 0 0 0 0.76,-0.35 1.92,1.92 0 0 0 0,-2.09 1,1 0 0 0 -0.76,-0.34 1,1 0 0 0 -0.77,0.34 1.57,1.57 0 0 0 -0.3,1.09 z"
           transform="translate(-4,-1.09)"
           id="path299" />
        <path
           class="cls-4"
           d="m 101.76,124.36 a 1.88,1.88 0 0 1 0.56,-1.5 1.67,1.67 0 0 1 1.14,-0.4 1.63,1.63 0 0 1 1.23,0.49 1.9,1.9 0 0 1 0.47,1.35 2.44,2.44 0 0 1 -0.21,1.11 1.52,1.52 0 0 1 -0.61,0.62 1.77,1.77 0 0 1 -0.88,0.22 1.62,1.62 0 0 1 -1.23,-0.49 1.94,1.94 0 0 1 -0.47,-1.4 z m 0.63,0 a 1.56,1.56 0 0 0 0.31,1 1,1 0 0 0 0.76,0.35 1,1 0 0 0 0.77,-0.35 1.61,1.61 0 0 0 0.3,-1.07 1.5,1.5 0 0 0 -0.31,-1 1,1 0 0 0 -0.76,-0.34 1,1 0 0 0 -0.76,0.34 1.57,1.57 0 0 0 -0.31,1.07 z"
           transform="translate(-4,-1.09)"
           id="path300" />
        <path
           class="cls-4"
           d="m 105.87,126.17 v -5 h 0.61 v 5 z"
           transform="translate(-4,-1.09)"
           id="path301" />
        <path
           d="m 107.84,127.64 h -0.44 a 5.82,5.82 0 0 0 0.88,-4.56 5.38,5.38 0 0 0 -0.33,-1 10.75,10.75 0 0 0 -0.55,-1 h 0.44 a 6.47,6.47 0 0 1 1,1.73 4.49,4.49 0 0 1 0.27,1.56 4.6,4.6 0 0 1 -0.36,1.78 5.89,5.89 0 0 1 -0.91,1.49 z"
           transform="translate(-4,-1.09)"
           id="path302" />
      </g>
      <g
         id="g319">
        <path
           d="m 10.27,117.77 v -5 h 0.67 v 5 z"
           transform="translate(-4,-1.09)"
           id="path303" />
        <path
           d="m 12,117.77 v -3.63 h 0.55 v 0.52 a 1.31,1.31 0 0 1 1.16,-0.6 1.5,1.5 0 0 1 0.6,0.12 0.88,0.88 0 0 1 0.41,0.31 1,1 0 0 1 0.19,0.45 2.74,2.74 0 0 1 0,0.6 v 2.23 h -0.62 v -2.21 a 1.58,1.58 0 0 0 -0.07,-0.56 0.65,0.65 0 0 0 -0.25,-0.3 0.89,0.89 0 0 0 -0.43,-0.11 1,1 0 0 0 -0.68,0.25 1.24,1.24 0 0 0 -0.29,1 v 2 z"
           transform="translate(-4,-1.09)"
           id="path304" />
        <path
           d="m 17.26,117.22 0.09,0.54 a 2.08,2.08 0 0 1 -0.46,0.06 1,1 0 0 1 -0.52,-0.11 0.54,0.54 0 0 1 -0.26,-0.28 2.1,2.1 0 0 1 -0.08,-0.72 v -2.09 h -0.45 v -0.48 H 16 v -0.9 l 0.61,-0.37 v 1.27 h 0.62 v 0.48 h -0.62 v 2.12 a 1,1 0 0 0 0,0.34 0.23,0.23 0 0 0 0.1,0.12 0.41,0.41 0 0 0 0.21,0 1.42,1.42 0 0 0 0.34,0.02 z"
           transform="translate(-4,-1.09)"
           id="path305" />
        <path
           d="m 20.35,116.6 0.64,0.08 a 1.53,1.53 0 0 1 -0.56,0.86 1.88,1.88 0 0 1 -2.3,-0.18 1.91,1.91 0 0 1 -0.47,-1.37 2,2 0 0 1 0.47,-1.43 1.62,1.62 0 0 1 1.22,-0.5 1.53,1.53 0 0 1 1.19,0.49 A 2,2 0 0 1 21,116 c 0,0 0,0.09 0,0.16 h -2.7 a 1.4,1.4 0 0 0 0.33,0.92 1,1 0 0 0 0.76,0.32 0.93,0.93 0 0 0 0.58,-0.18 1.17,1.17 0 0 0 0.38,-0.62 z m -2,-1 h 2 a 1.22,1.22 0 0 0 -0.24,-0.69 0.93,0.93 0 0 0 -0.76,-0.36 1,1 0 0 0 -0.71,0.29 1.13,1.13 0 0 0 -0.31,0.77 z"
           transform="translate(-4,-1.09)"
           id="path306" />
        <path
           d="m 21.65,118.07 0.59,0.09 a 0.6,0.6 0 0 0 0.21,0.4 1,1 0 0 0 0.63,0.17 1.08,1.08 0 0 0 0.66,-0.17 0.81,0.81 0 0 0 0.31,-0.48 4,4 0 0 0 0.05,-0.78 1.29,1.29 0 0 1 -1,0.47 1.38,1.38 0 0 1 -1.16,-0.54 2.1,2.1 0 0 1 -0.41,-1.3 2.3,2.3 0 0 1 0.19,-1 1.5,1.5 0 0 1 0.55,-0.68 1.42,1.42 0 0 1 0.83,-0.24 1.28,1.28 0 0 1 1.06,0.52 v -0.44 h 0.57 v 3.14 a 3.1,3.1 0 0 1 -0.17,1.2 1.29,1.29 0 0 1 -0.56,0.57 2,2 0 0 1 -0.92,0.2 1.72,1.72 0 0 1 -1,-0.29 1,1 0 0 1 -0.43,-0.84 z m 0.5,-2.18 a 1.56,1.56 0 0 0 0.29,1 0.89,0.89 0 0 0 0.71,0.33 0.91,0.91 0 0 0 0.71,-0.33 1.5,1.5 0 0 0 0.29,-1 1.46,1.46 0 0 0 -0.3,-1 0.91,0.91 0 0 0 -1.41,0 1.48,1.48 0 0 0 -0.29,1 z"
           transform="translate(-4,-1.09)"
           id="path307" />
        <path
           d="m 28.14,116.6 0.63,0.08 a 1.49,1.49 0 0 1 -0.56,0.86 1.62,1.62 0 0 1 -1,0.31 1.65,1.65 0 0 1 -1.27,-0.49 1.91,1.91 0 0 1 -0.46,-1.37 2,2 0 0 1 0.47,-1.43 1.61,1.61 0 0 1 1.22,-0.5 1.55,1.55 0 0 1 1.19,0.49 2,2 0 0 1 0.46,1.4 v 0.16 h -2.74 a 1.4,1.4 0 0 0 0.34,0.92 1,1 0 0 0 0.76,0.32 1,1 0 0 0 0.58,-0.18 1.24,1.24 0 0 0 0.38,-0.57 z m -2,-1 h 2 a 1.15,1.15 0 0 0 -0.23,-0.69 0.94,0.94 0 0 0 -0.76,-0.36 1,1 0 0 0 -0.71,0.29 1.09,1.09 0 0 0 -0.32,0.77 z"
           transform="translate(-4,-1.09)"
           id="path308" />
        <path
           d="m 29.54,117.77 v -3.63 h 0.55 v 0.55 a 1.44,1.44 0 0 1 0.39,-0.51 0.7,0.7 0 0 1 0.4,-0.12 1.16,1.16 0 0 1 0.63,0.2 l -0.21,0.57 a 0.88,0.88 0 0 0 -0.45,-0.14 0.61,0.61 0 0 0 -0.37,0.12 0.82,0.82 0 0 0 -0.23,0.34 2.72,2.72 0 0 0 -0.1,0.72 v 1.9 z"
           transform="translate(-4,-1.09)"
           id="path309" />
        <path
           d="M 7.18,127.64 A 5.89,5.89 0 0 1 6.32,126.14 4.59,4.59 0 0 1 6,124.36 4.48,4.48 0 0 1 6.26,122.8 6.76,6.76 0 0 1 7.21,121.07 h 0.44 c -0.27,0.48 -0.46,0.82 -0.55,1 a 6.24,6.24 0 0 0 -0.32,1 5.68,5.68 0 0 0 -0.15,1.29 6.17,6.17 0 0 0 1,3.28 z"
           transform="translate(-4,-1.09)"
           id="path310" />
        <path
           d="m 10.7,124.84 0.61,0.08 a 1.61,1.61 0 0 1 -0.51,1 1.5,1.5 0 0 1 -1,0.35 1.54,1.54 0 0 1 -1.2,-0.49 2,2 0 0 1 -0.45,-1.39 2.53,2.53 0 0 1 0.19,-1 1.38,1.38 0 0 1 0.6,-0.66 1.69,1.69 0 0 1 0.86,-0.22 1.5,1.5 0 0 1 1,0.3 1.36,1.36 0 0 1 0.48,0.85 l -0.6,0.09 a 0.92,0.92 0 0 0 -0.3,-0.55 0.79,0.79 0 0 0 -0.52,-0.19 1,1 0 0 0 -0.76,0.34 2.1,2.1 0 0 0 0,2.11 0.94,0.94 0 0 0 1.34,0.11 1.05,1.05 0 0 0 0.26,-0.73 z"
           transform="translate(-4,-1.09)"
           id="path311" />
        <path
           d="m 11.82,126.17 v -5 h 0.62 v 5 z"
           transform="translate(-4,-1.09)"
           id="path312" />
        <path
           d="m 15.76,125.72 a 2.21,2.21 0 0 1 -0.66,0.41 1.91,1.91 0 0 1 -0.68,0.12 1.35,1.35 0 0 1 -0.92,-0.29 1,1 0 0 1 -0.2,-1.23 1,1 0 0 1 0.32,-0.36 1.6,1.6 0 0 1 0.44,-0.2 5.21,5.21 0 0 1 0.55,-0.09 6,6 0 0 0 1.1,-0.21 v -0.16 a 0.7,0.7 0 0 0 -0.17,-0.53 1,1 0 0 0 -0.7,-0.21 1.08,1.08 0 0 0 -0.64,0.15 0.93,0.93 0 0 0 -0.31,0.54 l -0.6,-0.08 a 1.4,1.4 0 0 1 0.27,-0.63 1.08,1.08 0 0 1 0.54,-0.36 2.33,2.33 0 0 1 0.83,-0.13 2,2 0 0 1 0.75,0.11 1,1 0 0 1 0.43,0.27 1,1 0 0 1 0.19,0.42 3.58,3.58 0 0 1 0,0.57 v 0.82 a 7.84,7.84 0 0 0 0,1.08 1.63,1.63 0 0 0 0.15,0.44 h -0.64 a 1.48,1.48 0 0 1 -0.05,-0.45 z m 0,-1.37 a 4.49,4.49 0 0 1 -1,0.23 2.86,2.86 0 0 0 -0.53,0.12 0.63,0.63 0 0 0 -0.25,0.2 0.61,0.61 0 0 0 -0.08,0.3 0.54,0.54 0 0 0 0.18,0.41 0.82,0.82 0 0 0 0.55,0.16 1.18,1.18 0 0 0 0.63,-0.16 0.92,0.92 0 0 0 0.41,-0.42 1.59,1.59 0 0 0 0.1,-0.62 z"
           transform="translate(-4,-1.09)"
           id="path313" />
        <path
           d="m 17,125.09 0.61,-0.1 a 0.86,0.86 0 0 0 0.28,0.56 1,1 0 0 0 0.66,0.2 0.9,0.9 0 0 0 0.62,-0.18 0.5,0.5 0 0 0 0.21,-0.4 0.38,0.38 0 0 0 -0.18,-0.33 3.6,3.6 0 0 0 -0.63,-0.21 6.08,6.08 0 0 1 -0.94,-0.29 1,1 0 0 1 -0.39,-0.35 0.93,0.93 0 0 1 -0.14,-0.49 1,1 0 0 1 0.11,-0.45 1.22,1.22 0 0 1 0.3,-0.34 1.36,1.36 0 0 1 0.4,-0.18 1.79,1.79 0 0 1 0.53,-0.07 2.19,2.19 0 0 1 0.75,0.12 1,1 0 0 1 0.47,0.33 1.24,1.24 0 0 1 0.22,0.57 l -0.61,0.08 a 0.64,0.64 0 0 0 -0.23,-0.44 0.91,0.91 0 0 0 -0.56,-0.16 1,1 0 0 0 -0.6,0.14 0.44,0.44 0 0 0 -0.19,0.33 0.37,0.37 0 0 0 0.08,0.22 0.56,0.56 0 0 0 0.24,0.16 l 0.54,0.16 c 0.43,0.12 0.74,0.21 0.91,0.28 a 1,1 0 0 1 0.41,0.33 0.94,0.94 0 0 1 0.14,0.52 1,1 0 0 1 -0.18,0.58 1.16,1.16 0 0 1 -0.52,0.42 1.84,1.84 0 0 1 -0.76,0.15 1.76,1.76 0 0 1 -1.08,-0.29 1.38,1.38 0 0 1 -0.47,-0.87 z"
           transform="translate(-4,-1.09)"
           id="path314" />
        <path
           d="m 20.54,125.09 0.61,-0.1 a 0.86,0.86 0 0 0 0.28,0.56 1,1 0 0 0 0.66,0.2 0.9,0.9 0 0 0 0.62,-0.18 0.5,0.5 0 0 0 0.21,-0.4 0.38,0.38 0 0 0 -0.18,-0.33 3.6,3.6 0 0 0 -0.63,-0.21 6.08,6.08 0 0 1 -0.94,-0.29 1,1 0 0 1 -0.39,-0.35 0.93,0.93 0 0 1 -0.14,-0.49 1,1 0 0 1 0.11,-0.45 1.22,1.22 0 0 1 0.3,-0.34 1.36,1.36 0 0 1 0.4,-0.18 1.79,1.79 0 0 1 0.53,-0.07 2.19,2.19 0 0 1 0.75,0.12 1,1 0 0 1 0.47,0.33 1.24,1.24 0 0 1 0.22,0.57 l -0.61,0.08 A 0.64,0.64 0 0 0 22.58,123.12 0.91,0.91 0 0 0 22,123 a 1,1 0 0 0 -0.6,0.14 0.44,0.44 0 0 0 -0.19,0.33 0.37,0.37 0 0 0 0.08,0.22 0.56,0.56 0 0 0 0.24,0.16 l 0.54,0.16 c 0.43,0.12 0.74,0.21 0.91,0.28 a 1,1 0 0 1 0.41,0.33 0.94,0.94 0 0 1 0.14,0.52 1,1 0 0 1 -0.18,0.58 1.16,1.16 0 0 1 -0.52,0.42 1.84,1.84 0 0 1 -0.76,0.15 A 1.76,1.76 0 0 1 21,126 1.38,1.38 0 0 1 20.54,125.09 Z"
           transform="translate(-4,-1.09)"
           id="path315" />
        <path
           class="cls-4"
           d="m 26.23,121.87 v -0.71 h 0.62 v 0.71 z m 0,4.3 v -3.63 h 0.62 v 3.63 z"
           transform="translate(-4,-1.09)"
           id="path316" />
        <path
           class="cls-4"
           d="m 27.78,126.17 v -3.63 h 0.56 v 0.52 a 1.29,1.29 0 0 1 1.15,-0.6 1.54,1.54 0 0 1 0.61,0.12 0.88,0.88 0 0 1 0.41,0.31 1.16,1.16 0 0 1 0.19,0.45 4,4 0 0 1 0,0.6 v 2.23 H 30.09 V 124 a 1.86,1.86 0 0 0 -0.07,-0.56 0.68,0.68 0 0 0 -0.26,-0.3 0.83,0.83 0 0 0 -0.43,-0.11 1,1 0 0 0 -0.68,0.25 1.24,1.24 0 0 0 -0.28,1 v 2 z"
           transform="translate(-4,-1.09)"
           id="path317" />
        <path
           class="cls-4"
           d="m 33,125.62 0.09,0.54 a 2.09,2.09 0 0 1 -0.47,0.06 1.09,1.09 0 0 1 -0.52,-0.11 0.64,0.64 0 0 1 -0.26,-0.28 2.18,2.18 0 0 1 -0.07,-0.72 V 123 h -0.45 v -0.48 h 0.45 v -0.9 l 0.61,-0.37 v 1.27 H 33 V 123 h -0.6 v 2.12 a 1.15,1.15 0 0 0 0,0.34 0.32,0.32 0 0 0 0.11,0.12 0.41,0.41 0 0 0 0.21,0 1.42,1.42 0 0 0 0.28,0.04 z"
           transform="translate(-4,-1.09)"
           id="path318" />
        <path
           d="m 34,127.64 h -0.44 a 6.1,6.1 0 0 0 1,-3.28 5.59,5.59 0 0 0 -0.15,-1.28 5.38,5.38 0 0 0 -0.33,-1 8.82,8.82 0 0 0 -0.55,-1 H 34 a 6.81,6.81 0 0 1 1,1.73 4.73,4.73 0 0 1 0.26,1.56 4.6,4.6 0 0 1 -0.36,1.78 5.89,5.89 0 0 1 -0.9,1.49 z"
           transform="translate(-4,-1.09)"
           id="path319" />
      </g>
      <rect
         x="40.650002"
         y="94.980003"
         width="25.299999"
         height="0.34999999"
         id="rect319" />
      <g
         id="g327">
        <path
           d="m 45.13,95.47 v -5 h 1 v 5 z"
           transform="translate(-4,-1.09)"
           id="path320" />
        <path
           d="m 50.4,95.47 h -1 v -1.85 a 2.91,2.91 0 0 0 -0.06,-0.76 0.51,0.51 0 0 0 -0.2,-0.27 0.57,0.57 0 0 0 -0.34,-0.1 0.77,0.77 0 0 0 -0.44,0.14 0.66,0.66 0 0 0 -0.28,0.36 3.67,3.67 0 0 0 -0.07,0.84 v 1.64 h -1 V 91.84 H 48 v 0.53 a 1.46,1.46 0 0 1 1.2,-0.61 1.58,1.58 0 0 1 0.58,0.11 1.06,1.06 0 0 1 0.4,0.29 1.18,1.18 0 0 1 0.19,0.41 3.36,3.36 0 0 1 0,0.64 z"
           transform="translate(-4,-1.09)"
           id="path321" />
        <path
           d="m 53,91.84 v 0.77 h -0.66 v 1.46 a 4,4 0 0 0 0,0.52 0.18,0.18 0 0 0 0.09,0.12 0.25,0.25 0 0 0 0.16,0.05 1.26,1.26 0 0 0 0.38,-0.1 l 0.09,0.75 a 2.06,2.06 0 0 1 -0.76,0.14 1.36,1.36 0 0 1 -0.47,-0.08 0.76,0.76 0 0 1 -0.31,-0.23 0.89,0.89 0 0 1 -0.13,-0.37 4.91,4.91 0 0 1 0,-0.68 V 92.61 H 51 v -0.77 h 0.44 v -0.72 l 1,-0.56 v 1.28 z"
           transform="translate(-4,-1.09)"
           id="path322" />
        <path
           d="m 55.81,94.31 0.95,0.17 a 1.55,1.55 0 0 1 -0.58,0.8 1.73,1.73 0 0 1 -1,0.27 1.61,1.61 0 0 1 -1.4,-0.62 2.06,2.06 0 0 1 -0.36,-1.25 2,2 0 0 1 0.48,-1.41 1.54,1.54 0 0 1 1.19,-0.51 1.64,1.64 0 0 1 1.28,0.53 2.36,2.36 0 0 1 0.44,1.64 h -2.4 a 1,1 0 0 0 0.23,0.67 0.71,0.71 0 0 0 0.55,0.23 0.6,0.6 0 0 0 0.38,-0.12 0.74,0.74 0 0 0 0.24,-0.4 z m 0,-1 a 1,1 0 0 0 -0.21,-0.63 0.7,0.7 0 0 0 -0.5,-0.22 0.67,0.67 0 0 0 -0.52,0.23 0.83,0.83 0 0 0 -0.2,0.62 z"
           transform="translate(-4,-1.09)"
           id="path323" />
        <path
           d="m 57.51,95.71 1.1,0.13 a 0.38,0.38 0 0 0 0.12,0.27 0.8,0.8 0 0 0 0.43,0.1 1.22,1.22 0 0 0 0.57,-0.11 0.55,0.55 0 0 0 0.19,-0.25 1.46,1.46 0 0 0 0,-0.44 v -0.53 a 1.3,1.3 0 0 1 -1.08,0.59 1.34,1.34 0 0 1 -1.16,-0.62 2,2 0 0 1 -0.34,-1.22 2,2 0 0 1 0.44,-1.39 1.42,1.42 0 0 1 1.09,-0.48 1.33,1.33 0 0 1 1.11,0.59 v -0.51 h 0.9 v 3.26 a 3.29,3.29 0 0 1 -0.1,1 1.17,1.17 0 0 1 -0.3,0.5 1.38,1.38 0 0 1 -0.51,0.28 2.63,2.63 0 0 1 -0.81,0.1 2.1,2.1 0 0 1 -1.31,-0.31 1,1 0 0 1 -0.39,-0.8 c 0,0 0.05,-0.12 0.05,-0.16 z m 0.86,-2.13 a 1.31,1.31 0 0 0 0.22,0.85 0.71,0.71 0 0 0 0.55,0.26 0.77,0.77 0 0 0 0.6,-0.27 1.22,1.22 0 0 0 0.26,-0.82 1.28,1.28 0 0 0 -0.23,-0.83 0.73,0.73 0 0 0 -0.59,-0.28 0.71,0.71 0 0 0 -0.57,0.27 1.26,1.26 0 0 0 -0.24,0.82 z"
           transform="translate(-4,-1.09)"
           id="path324" />
        <path
           d="m 62.79,95.47 h -1 v -3.63 h 0.89 v 0.52 a 1.55,1.55 0 0 1 0.42,-0.49 0.81,0.81 0 0 1 0.41,-0.11 1.21,1.21 0 0 1 0.63,0.18 l -0.29,0.84 a 0.85,0.85 0 0 0 -0.45,-0.16 0.58,0.58 0 0 0 -0.35,0.11 0.82,0.82 0 0 0 -0.22,0.4 6,6 0 0 0 -0.08,1.22 z"
           transform="translate(-4,-1.09)"
           id="path325" />
        <path
           d="M 65.31,93 64.44,92.84 A 1.38,1.38 0 0 1 65,92 a 1.84,1.84 0 0 1 1,-0.24 2.32,2.32 0 0 1 1,0.15 1,1 0 0 1 0.45,0.39 2.07,2.07 0 0 1 0.12,0.86 v 1.12 a 3.79,3.79 0 0 0 0,0.7 2.21,2.21 0 0 0 0.17,0.49 h -1 l -0.09,-0.28 a 0.49,0.49 0 0 1 0,-0.12 1.78,1.78 0 0 1 -0.53,0.36 1.53,1.53 0 0 1 -0.6,0.12 1.24,1.24 0 0 1 -0.88,-0.3 1.07,1.07 0 0 1 -0.18,-1.32 1,1 0 0 1 0.41,-0.37 3.33,3.33 0 0 1 0.77,-0.22 5.8,5.8 0 0 0 0.93,-0.24 V 93 a 0.51,0.51 0 0 0 -0.14,-0.4 0.79,0.79 0 0 0 -0.51,-0.12 0.74,0.74 0 0 0 -0.4,0.1 0.71,0.71 0 0 0 -0.21,0.42 z m 1.29,0.78 a 5,5 0 0 1 -0.58,0.14 2,2 0 0 0 -0.53,0.17 0.42,0.42 0 0 0 -0.19,0.34 0.46,0.46 0 0 0 0.16,0.35 0.5,0.5 0 0 0 0.38,0.15 0.78,0.78 0 0 0 0.49,-0.18 0.53,0.53 0 0 0 0.23,-0.31 1.7,1.7 0 0 0 0,-0.47 z"
           transform="translate(-4,-1.09)"
           id="path326" />
        <path
           d="m 68.49,95.47 v -5 h 1 v 5 z"
           transform="translate(-4,-1.09)"
           id="path327" />
      </g>
    </g>
    <g
       id="Numbers-2"
       data-name="Numbers">
      <rect
         class="cls-6"
         x="121.67"
         y="59.580002"
         width="34.5"
         height="7.8499999"
         id="rect327" />
      <g
         id="g334">
        <path
           class="cls-2"
           d="m 128.27,67 v -5 h 1 l 2.05,3.35 V 62 h 0.94 v 5 h -1 l -2,-3.27 V 67 Z"
           transform="translate(-4,-1.09)"
           id="path328" />
        <path
           class="cls-2"
           d="m 135.7,67 v -0.54 a 1.34,1.34 0 0 1 -0.52,0.45 1.37,1.37 0 0 1 -0.68,0.17 1.32,1.32 0 0 1 -0.66,-0.16 1,1 0 0 1 -0.42,-0.45 1.93,1.93 0 0 1 -0.13,-0.8 v -2.3 h 1 v 1.67 a 5.28,5.28 0 0 0 0.05,0.94 0.54,0.54 0 0 0 0.2,0.27 0.56,0.56 0 0 0 0.35,0.1 0.74,0.74 0 0 0 0.71,-0.47 3.8,3.8 0 0 0 0.07,-1 v -1.49 h 1 V 67 Z"
           transform="translate(-4,-1.09)"
           id="path329" />
        <path
           class="cls-2"
           d="m 137.52,63.39 h 0.88 v 0.5 a 1.43,1.43 0 0 1 1.13,-0.58 1.28,1.28 0 0 1 0.61,0.14 1.12,1.12 0 0 1 0.42,0.44 1.71,1.71 0 0 1 0.51,-0.44 1.39,1.39 0 0 1 0.6,-0.14 1.28,1.28 0 0 1 0.67,0.16 1,1 0 0 1 0.42,0.48 2.21,2.21 0 0 1 0.09,0.75 V 67 h -1 v -2 a 1.69,1.69 0 0 0 -0.09,-0.7 0.46,0.46 0 0 0 -0.41,-0.21 0.58,0.58 0 0 0 -0.38,0.13 0.65,0.65 0 0 0 -0.26,0.36 2.59,2.59 0 0 0 -0.08,0.75 V 67 h -1 v -2 a 3,3 0 0 0 -0.05,-0.68 0.45,0.45 0 0 0 -0.16,-0.23 0.5,0.5 0 0 0 -0.29,-0.08 0.7,0.7 0 0 0 -0.4,0.12 0.67,0.67 0 0 0 -0.26,0.35 2.68,2.68 0 0 0 -0.07,0.75 V 67 h -1 z"
           transform="translate(-4,-1.09)"
           id="path330" />
        <path
           class="cls-2"
           d="m 143.77,67 v -5 h 1 v 1.8 a 1.38,1.38 0 0 1 1.05,-0.5 1.41,1.41 0 0 1 1.1,0.48 2,2 0 0 1 0.44,1.38 2.08,2.08 0 0 1 -0.45,1.43 1.38,1.38 0 0 1 -1.07,0.5 1.41,1.41 0 0 1 -0.62,-0.15 1.62,1.62 0 0 1 -0.52,-0.46 V 67 Z m 0.95,-1.89 a 1.53,1.53 0 0 0 0.18,0.83 0.76,0.76 0 0 0 0.67,0.38 0.68,0.68 0 0 0 0.54,-0.27 1.33,1.33 0 0 0 0.22,-0.85 1.42,1.42 0 0 0 -0.22,-0.9 0.71,0.71 0 0 0 -0.58,-0.28 0.74,0.74 0 0 0 -0.58,0.27 1.25,1.25 0 0 0 -0.23,0.84 z"
           transform="translate(-4,-1.09)"
           id="path331" />
        <path
           class="cls-2"
           d="m 150.19,65.86 1,0.17 a 1.62,1.62 0 0 1 -0.59,0.8 1.7,1.7 0 0 1 -1,0.27 1.6,1.6 0 0 1 -1.4,-0.62 2.06,2.06 0 0 1 -0.36,-1.25 2,2 0 0 1 0.47,-1.41 1.54,1.54 0 0 1 1.19,-0.51 1.63,1.63 0 0 1 1.28,0.53 2.42,2.42 0 0 1 0.45,1.64 h -2.41 a 1,1 0 0 0 0.23,0.67 0.77,0.77 0 0 0 0.56,0.23 0.62,0.62 0 0 0 0.38,-0.12 0.73,0.73 0 0 0 0.2,-0.4 z m 0.05,-1 a 0.87,0.87 0 0 0 -0.21,-0.63 0.69,0.69 0 0 0 -1,0 0.87,0.87 0 0 0 -0.2,0.62 z"
           transform="translate(-4,-1.09)"
           id="path332" />
        <path
           class="cls-2"
           d="m 152.9,67 h -1 v -3.61 h 0.89 v 0.52 a 1.55,1.55 0 0 1 0.41,-0.49 0.85,0.85 0 0 1 0.42,-0.11 1.21,1.21 0 0 1 0.63,0.18 l -0.3,0.84 a 0.8,0.8 0 0 0 -0.45,-0.16 0.55,0.55 0 0 0 -0.34,0.11 0.75,0.75 0 0 0 -0.22,0.4 6,6 0 0 0 -0.08,1.22 z"
           transform="translate(-4,-1.09)"
           id="path333" />
        <path
           class="cls-2"
           d="m 154.37,66 1,-0.14 a 0.67,0.67 0 0 0 0.25,0.42 0.84,0.84 0 0 0 0.53,0.15 1,1 0 0 0 0.56,-0.14 0.31,0.31 0 0 0 0.12,-0.26 0.24,0.24 0 0 0 -0.07,-0.18 0.8,0.8 0 0 0 -0.32,-0.12 5.23,5.23 0 0 1 -1.47,-0.47 0.94,0.94 0 0 1 -0.43,-0.82 1,1 0 0 1 0.37,-0.79 1.73,1.73 0 0 1 1.16,-0.32 2,2 0 0 1 1.1,0.24 1.19,1.19 0 0 1 0.5,0.72 l -0.9,0.17 A 0.56,0.56 0 0 0 156.55,64.13 0.86,0.86 0 0 0 156,64 a 1.05,1.05 0 0 0 -0.54,0.1 0.24,0.24 0 0 0 -0.11,0.2 0.19,0.19 0 0 0 0.1,0.17 3,3 0 0 0 0.89,0.27 2.74,2.74 0 0 1 1.08,0.43 0.89,0.89 0 0 1 0.3,0.72 1.08,1.08 0 0 1 -0.42,0.85 1.84,1.84 0 0 1 -1.23,0.36 2,2 0 0 1 -1.18,-0.3 1.36,1.36 0 0 1 -0.52,-0.8 z"
           transform="translate(-4,-1.09)"
           id="path334" />
      </g>
    </g>
    <g
       id="g336">
      <line
         class="cls-2"
         x1="138.92999"
         y1="67.43"
         x2="65.949997"
         y2="87.830002"
         id="line334" />
      <g
         id="g335">
        <line
           class="cls-5"
           x1="138.92999"
           y1="67.43"
           x2="71.699997"
           y2="86.220001"
           id="line335" />
        <polygon
           points="72.89,85.89 75.4,89.03 65.95,87.83 73.41,81.9 "
           id="polygon335" />
      </g>
    </g>
    <g
       id="g337">
      <line
         class="cls-5"
         x1="138.92999"
         y1="67.43"
         x2="138.92999"
         y2="81.860001"
         id="line336" />
      <polygon
         points="138.93,80.63 142.63,79.05 138.93,87.83 135.22,79.05 "
         id="polygon336" />
    </g>
    <g
       id="g338">
      <line
         class="cls-5"
         x1="138.92999"
         y1="67.43"
         x2="207.16"
         y2="84.919998"
         id="line337" />
      <polygon
         points="205.96,84.62 205.36,80.64 212.94,86.41 203.52,87.81 "
         id="polygon337" />
    </g>
    <g
       id="g339">
      <line
         class="cls-5"
         x1="53.889999"
         y1="95.529999"
         x2="32.91"
         y2="105.46"
         id="line338" />
      <polygon
         points="34.02,104.93 37.03,107.6 27.51,108.01 33.87,100.91 "
         id="polygon338" />
    </g>
    <g
       id="g340">
      <line
         class="cls-5"
         x1="53.889999"
         y1="95.529999"
         x2="68.519997"
         y2="106.27"
         id="line339" />
      <polygon
         points="67.52,105.54 68.45,101.63 73.33,109.81 64.06,107.6 "
         id="polygon339" />
    </g>
  </g>
  <g
     id="None"
     transform="translate(0,-29.98)">
    <g
       id="g354">
      <path
         d="m 116.16,48.34 a 6.4,6.4 0 0 1 -0.86,-1.5 4.79,4.79 0 0 1 -0.35,-1.79 4.71,4.71 0 0 1 0.26,-1.55 7.08,7.08 0 0 1 1,-1.73 h 0.44 q -0.41,0.72 -0.54,1 a 5.38,5.38 0 0 0 -0.33,1 5.68,5.68 0 0 0 -0.15,1.29 6.17,6.17 0 0 0 1,3.28 z"
         transform="translate(-4,-1.09)"
         id="path340" />
      <path
         d="m 119.69,45.54 0.6,0.08 a 1.55,1.55 0 0 1 -0.5,1 1.53,1.53 0 0 1 -1,0.35 1.57,1.57 0 0 1 -1.2,-0.49 2,2 0 0 1 -0.45,-1.39 2.52,2.52 0 0 1 0.2,-1 1.36,1.36 0 0 1 0.59,-0.66 1.71,1.71 0 0 1 0.87,-0.22 1.49,1.49 0 0 1 1,0.3 1.36,1.36 0 0 1 0.48,0.85 l -0.59,0.09 a 1,1 0 0 0 -0.31,-0.55 0.79,0.79 0 0 0 -0.52,-0.19 1,1 0 0 0 -0.76,0.34 1.59,1.59 0 0 0 -0.29,1 1.66,1.66 0 0 0 0.28,1.06 0.9,0.9 0 0 0 0.74,0.34 0.85,0.85 0 0 0 0.6,-0.23 1.11,1.11 0 0 0 0.26,-0.68 z"
         transform="translate(-4,-1.09)"
         id="path341" />
      <path
         d="m 120.81,46.87 v -5 h 0.61 v 5 z"
         transform="translate(-4,-1.09)"
         id="path342" />
      <path
         d="m 124.74,46.42 a 2,2 0 0 1 -0.66,0.41 1.85,1.85 0 0 1 -0.67,0.12 1.33,1.33 0 0 1 -0.92,-0.29 1,1 0 0 1 -0.32,-0.75 1,1 0 0 1 0.12,-0.48 0.93,0.93 0 0 1 0.32,-0.36 1.48,1.48 0 0 1 0.44,-0.2 l 0.54,-0.09 a 5.78,5.78 0 0 0 1.1,-0.21 c 0,-0.09 0,-0.14 0,-0.16 a 0.66,0.66 0 0 0 -0.18,-0.53 1,1 0 0 0 -0.7,-0.21 1.1,1.1 0 0 0 -0.64,0.15 0.93,0.93 0 0 0 -0.31,0.54 l -0.6,-0.08 a 1.67,1.67 0 0 1 0.27,-0.63 1.15,1.15 0 0 1 0.55,-0.36 2.28,2.28 0 0 1 0.82,-0.13 2,2 0 0 1 0.75,0.11 0.94,0.94 0 0 1 0.43,0.27 0.9,0.9 0 0 1 0.19,0.42 3.67,3.67 0 0 1 0,0.57 v 0.82 a 10,10 0 0 0 0,1.08 1.37,1.37 0 0 0 0.16,0.44 h -0.64 a 1.25,1.25 0 0 1 -0.05,-0.45 z m 0,-1.37 a 4.38,4.38 0 0 1 -1,0.23 3,3 0 0 0 -0.54,0.12 0.6,0.6 0 0 0 -0.24,0.2 0.53,0.53 0 0 0 -0.09,0.3 0.52,0.52 0 0 0 0.19,0.41 0.77,0.77 0 0 0 0.54,0.16 1.24,1.24 0 0 0 0.64,-0.16 0.9,0.9 0 0 0 0.4,-0.42 1.45,1.45 0 0 0 0.1,-0.62 z"
         transform="translate(-4,-1.09)"
         id="path343" />
      <path
         d="m 126,45.79 0.61,-0.1 a 0.83,0.83 0 0 0 0.29,0.56 1,1 0 0 0 0.65,0.2 1,1 0 0 0 0.63,-0.18 0.49,0.49 0 0 0 0.2,-0.4 0.38,0.38 0 0 0 -0.18,-0.33 3,3 0 0 0 -0.63,-0.21 5.53,5.53 0 0 1 -0.93,-0.29 0.92,0.92 0 0 1 -0.4,-0.35 0.93,0.93 0 0 1 -0.14,-0.49 1,1 0 0 1 0.11,-0.45 1.12,1.12 0 0 1 0.31,-0.34 1.18,1.18 0 0 1 0.39,-0.18 1.79,1.79 0 0 1 0.53,-0.07 2.11,2.11 0 0 1 0.75,0.12 1,1 0 0 1 0.48,0.33 1.36,1.36 0 0 1 0.21,0.57 l -0.6,0.08 a 0.69,0.69 0 0 0 -0.24,-0.44 0.91,0.91 0 0 0 -0.56,-0.16 1,1 0 0 0 -0.6,0.14 0.43,0.43 0 0 0 -0.18,0.33 0.36,0.36 0 0 0 0.07,0.22 0.56,0.56 0 0 0 0.24,0.16 l 0.54,0.16 a 7,7 0 0 1 0.91,0.28 1,1 0 0 1 0.41,0.33 0.86,0.86 0 0 1 0.15,0.52 1,1 0 0 1 -0.18,0.58 1.21,1.21 0 0 1 -0.52,0.42 1.89,1.89 0 0 1 -0.77,0.15 1.76,1.76 0 0 1 -1.08,-0.29 1.43,1.43 0 0 1 -0.47,-0.87 z"
         transform="translate(-4,-1.09)"
         id="path344" />
      <path
         d="m 129.52,45.79 0.61,-0.1 a 0.83,0.83 0 0 0 0.29,0.56 1,1 0 0 0 0.65,0.2 1,1 0 0 0 0.63,-0.18 0.49,0.49 0 0 0 0.2,-0.4 0.38,0.38 0 0 0 -0.18,-0.33 3,3 0 0 0 -0.63,-0.21 5.53,5.53 0 0 1 -0.93,-0.29 0.92,0.92 0 0 1 -0.4,-0.35 0.93,0.93 0 0 1 -0.14,-0.49 1,1 0 0 1 0.11,-0.45 1.12,1.12 0 0 1 0.31,-0.34 1.18,1.18 0 0 1 0.39,-0.18 1.79,1.79 0 0 1 0.53,-0.07 2.11,2.11 0 0 1 0.75,0.12 1,1 0 0 1 0.48,0.33 1.36,1.36 0 0 1 0.21,0.57 l -0.6,0.08 a 0.69,0.69 0 0 0 -0.24,-0.44 0.91,0.91 0 0 0 -0.56,-0.16 1,1 0 0 0 -0.6,0.14 0.43,0.43 0 0 0 -0.18,0.33 0.36,0.36 0 0 0 0.07,0.22 0.56,0.56 0 0 0 0.24,0.16 l 0.54,0.16 A 7,7 0 0 1 132,45 a 1,1 0 0 1 0.41,0.33 0.86,0.86 0 0 1 0.15,0.52 1,1 0 0 1 -0.18,0.58 1.21,1.21 0 0 1 -0.52,0.42 1.89,1.89 0 0 1 -0.77,0.15 1.76,1.76 0 0 1 -1.08,-0.29 1.43,1.43 0 0 1 -0.49,-0.92 z"
         transform="translate(-4,-1.09)"
         id="path345" />
      <path
         class="cls-4"
         d="m 135.28,46.87 v -5 H 136 l 2.64,3.93 v -3.94 h 0.63 v 5 h -0.68 l -2.63,-3.94 v 3.94 z"
         transform="translate(-4,-1.09)"
         id="path346" />
      <path
         class="cls-4"
         d="m 140,45.05 a 1.89,1.89 0 0 1 0.56,-1.49 1.67,1.67 0 0 1 1.14,-0.4 1.6,1.6 0 0 1 1.22,0.49 1.86,1.86 0 0 1 0.48,1.35 2.44,2.44 0 0 1 -0.21,1.11 1.52,1.52 0 0 1 -0.61,0.62 1.77,1.77 0 0 1 -0.88,0.22 1.6,1.6 0 0 1 -1.23,-0.49 2,2 0 0 1 -0.47,-1.41 z m 0.63,0 a 1.51,1.51 0 0 0 0.37,1.05 1,1 0 0 0 1.52,0 1.55,1.55 0 0 0 0.31,-1.07 1.5,1.5 0 0 0 -0.31,-1 1,1 0 0 0 -0.76,-0.34 1,1 0 0 0 -0.76,0.31 1.5,1.5 0 0 0 -0.33,1.05 z"
         transform="translate(-4,-1.09)"
         id="path347" />
      <path
         class="cls-4"
         d="m 144.16,46.87 v -3.63 h 0.55 v 0.52 a 1.32,1.32 0 0 1 1.16,-0.6 1.46,1.46 0 0 1 0.6,0.12 0.83,0.83 0 0 1 0.41,0.31 1,1 0 0 1 0.2,0.45 4,4 0 0 1 0,0.6 v 2.23 h -0.61 v -2.21 a 1.54,1.54 0 0 0 -0.08,-0.56 0.6,0.6 0 0 0 -0.25,-0.3 0.86,0.86 0 0 0 -0.43,-0.11 1,1 0 0 0 -0.68,0.25 1.24,1.24 0 0 0 -0.28,1 v 2 z"
         transform="translate(-4,-1.09)"
         id="path348" />
      <path
         class="cls-4"
         d="m 150.54,45.7 0.63,0.08 a 1.52,1.52 0 0 1 -0.55,0.86 1.88,1.88 0 0 1 -2.3,-0.18 1.87,1.87 0 0 1 -0.47,-1.37 2,2 0 0 1 0.47,-1.43 1.61,1.61 0 0 1 1.22,-0.5 1.53,1.53 0 0 1 1.19,0.49 2,2 0 0 1 0.47,1.4 c 0,0 0,0.09 0,0.16 h -2.71 a 1.45,1.45 0 0 0 0.34,0.92 1,1 0 0 0 0.76,0.32 0.93,0.93 0 0 0 0.58,-0.18 1.17,1.17 0 0 0 0.37,-0.57 z m -2,-1 h 2 a 1.22,1.22 0 0 0 -0.24,-0.69 0.93,0.93 0 0 0 -0.76,-0.36 1,1 0 0 0 -0.71,0.29 1.13,1.13 0 0 0 -0.31,0.77 z"
         transform="translate(-4,-1.09)"
         id="path349" />
      <path
         class="cls-4"
         d="m 153.3,46.87 v -4.42 h -1.65 v -0.59 h 4 v 0.59 H 154 v 4.42 z"
         transform="translate(-4,-1.09)"
         id="path350" />
      <path
         class="cls-4"
         d="m 156.2,48.27 -0.07,-0.58 a 1.18,1.18 0 0 0 0.35,0.05 0.75,0.75 0 0 0 0.33,-0.06 0.61,0.61 0 0 0 0.2,-0.19 4.11,4.11 0 0 0 0.19,-0.46 l 0.05,-0.15 -1.38,-3.64 h 0.67 l 0.75,2.1 q 0.15,0.4 0.27,0.84 a 7.1,7.1 0 0 1 0.25,-0.82 l 0.77,-2.12 h 0.62 l -1.38,3.69 a 6.84,6.84 0 0 1 -0.35,0.83 1.18,1.18 0 0 1 -0.37,0.44 0.85,0.85 0 0 1 -0.51,0.14 1.15,1.15 0 0 1 -0.39,-0.07 z"
         transform="translate(-4,-1.09)"
         id="path351" />
      <path
         class="cls-4"
         d="m 159.72,48.26 v -5 h 0.56 v 0.47 a 1.44,1.44 0 0 1 0.45,-0.41 1.17,1.17 0 0 1 0.61,-0.14 1.44,1.44 0 0 1 0.82,0.24 1.49,1.49 0 0 1 0.53,0.67 2.49,2.49 0 0 1 0.18,1 2.32,2.32 0 0 1 -0.2,1 1.39,1.39 0 0 1 -0.58,0.68 1.47,1.47 0 0 1 -0.8,0.24 1.12,1.12 0 0 1 -0.55,-0.13 1.08,1.08 0 0 1 -0.4,-0.33 v 1.77 z m 0.56,-3.18 a 1.62,1.62 0 0 0 0.28,1 0.87,0.87 0 0 0 1.39,0 1.62,1.62 0 0 0 0.3,-1.08 1.58,1.58 0 0 0 -0.29,-1 0.87,0.87 0 0 0 -0.68,-0.35 0.88,0.88 0 0 0 -0.7,0.37 1.64,1.64 0 0 0 -0.3,1.06 z"
         transform="translate(-4,-1.09)"
         id="path352" />
      <path
         class="cls-4"
         d="m 166.1,45.7 0.64,0.08 a 1.53,1.53 0 0 1 -0.56,0.86 1.88,1.88 0 0 1 -2.3,-0.18 1.91,1.91 0 0 1 -0.47,-1.37 2,2 0 0 1 0.47,-1.43 1.63,1.63 0 0 1 1.23,-0.5 1.56,1.56 0 0 1 1.19,0.49 2,2 0 0 1 0.46,1.4 1.1,1.1 0 0 1 0,0.16 h -2.7 a 1.4,1.4 0 0 0 0.33,0.92 1,1 0 0 0 0.76,0.32 0.93,0.93 0 0 0 0.58,-0.18 1.17,1.17 0 0 0 0.37,-0.57 z m -2,-1 h 2 a 1.3,1.3 0 0 0 -0.23,-0.69 1,1 0 0 0 -0.77,-0.36 1,1 0 0 0 -0.71,0.29 1.13,1.13 0 0 0 -0.31,0.77 z"
         transform="translate(-4,-1.09)"
         id="path353" />
      <path
         d="m 167.91,48.34 h -0.44 a 5.82,5.82 0 0 0 0.88,-4.56 5.38,5.38 0 0 0 -0.33,-1 10.75,10.75 0 0 0 -0.55,-1 h 0.44 a 6.47,6.47 0 0 1 1,1.73 4.47,4.47 0 0 1 0.27,1.55 4.62,4.62 0 0 1 -0.36,1.79 6.06,6.06 0 0 1 -0.91,1.49 z"
         transform="translate(-4,-1.09)"
         id="path354" />
    </g>
    <g
       id="g359">
      <rect
         class="cls-3"
         x="127.6"
         y="29.98"
         width="22.65"
         height="7.8499999"
         id="rect354" />
      <g
         id="g358">
        <path
           class="cls-2"
           d="m 134.69,37.42 v -5 h 1 l 2,3.35 v -3.36 h 0.94 v 5 h -1 l -2,-3.27 v 3.27 z"
           transform="translate(-4,-1.09)"
           id="path355" />
        <path
           class="cls-2"
           d="m 139.51,35.55 a 1.94,1.94 0 0 1 0.24,-0.92 1.59,1.59 0 0 1 0.67,-0.69 2,2 0 0 1 1,-0.23 1.83,1.83 0 0 1 1.35,0.53 2,2 0 0 1 0,2.72 1.82,1.82 0 0 1 -1.34,0.54 2.07,2.07 0 0 1 -0.95,-0.22 1.47,1.47 0 0 1 -0.69,-0.66 2.23,2.23 0 0 1 -0.28,-1.07 z m 1,0.06 a 1.18,1.18 0 0 0 0.25,0.82 0.83,0.83 0 0 0 1.26,0 1.21,1.21 0 0 0 0.26,-0.83 1.19,1.19 0 0 0 -0.26,-0.82 0.83,0.83 0 0 0 -1.26,0 1.21,1.21 0 0 0 -0.26,0.83 z"
           transform="translate(-4,-1.09)"
           id="path356" />
        <path
           class="cls-2"
           d="m 147.31,37.42 h -1 v -1.85 a 2.91,2.91 0 0 0 -0.06,-0.76 0.51,0.51 0 0 0 -0.2,-0.27 0.55,0.55 0 0 0 -0.34,-0.1 0.77,0.77 0 0 0 -0.44,0.14 0.6,0.6 0 0 0 -0.27,0.36 3,3 0 0 0 -0.08,0.84 v 1.64 h -1 v -3.63 h 0.89 v 0.53 a 1.46,1.46 0 0 1 1.2,-0.61 1.54,1.54 0 0 1 0.58,0.11 1,1 0 0 1 0.4,0.3 1.06,1.06 0 0 1 0.19,0.4 3.36,3.36 0 0 1 0.05,0.64 z"
           transform="translate(-4,-1.09)"
           id="path357" />
        <path
           class="cls-2"
           d="m 150.39,36.26 1,0.17 a 1.55,1.55 0 0 1 -0.58,0.8 1.73,1.73 0 0 1 -1,0.27 1.61,1.61 0 0 1 -1.4,-0.62 2.06,2.06 0 0 1 -0.36,-1.25 2,2 0 0 1 0.48,-1.41 1.54,1.54 0 0 1 1.19,-0.51 1.64,1.64 0 0 1 1.28,0.53 2.36,2.36 0 0 1 0.44,1.64 H 149 a 1,1 0 0 0 0.23,0.67 0.71,0.71 0 0 0 0.55,0.23 0.6,0.6 0 0 0 0.38,-0.12 0.74,0.74 0 0 0 0.23,-0.4 z m 0.05,-1 a 1,1 0 0 0 -0.21,-0.63 0.7,0.7 0 0 0 -0.5,-0.22 0.67,0.67 0 0 0 -0.52,0.23 0.85,0.85 0 0 0 -0.2,0.62 z"
           transform="translate(-4,-1.09)"
           id="path358" />
      </g>
    </g>
  </g>
  <rect
     class="cls-5"
     x="0.5"
     y="23.130001"
     width="276"
     height="83"
     id="rect389" />
</svg>
