<?xml version="1.0" encoding="UTF-8" standalone="no"?>
<svg
   viewBox="0 0 365.82974 226.77166"
   version="1.1"
   id="svg84"
   sodipodi:docname="Fibonacci_Spiral.svg"
   width="365.82974"
   height="226.77165"
   inkscape:version="1.3 (0e150ed6c4, 2023-07-21)"
   xmlns:inkscape="http://www.inkscape.org/namespaces/inkscape"
   xmlns:sodipodi="http://sodipodi.sourceforge.net/DTD/sodipodi-0.dtd"
   xmlns="http://www.w3.org/2000/svg"
   xmlns:svg="http://www.w3.org/2000/svg">
  <defs
     id="defs84" />
  <sodipodi:namedview
     id="namedview84"
     pagecolor="#ffffff"
     bordercolor="#666666"
     borderopacity="1.0"
     inkscape:showpageshadow="2"
     inkscape:pageopacity="0.0"
     inkscape:pagecheckerboard="0"
     inkscape:deskcolor="#d1d1d1"
     inkscape:zoom="2.9731566"
     inkscape:cx="182.97052"
     inkscape:cy="113.0112"
     inkscape:window-width="3840"
     inkscape:window-height="2119"
     inkscape:window-x="0"
     inkscape:window-y="41"
     inkscape:window-maximized="1"
     inkscape:current-layer="svg84" />
  <g
     style="isolation:isolate"
     id="g84"
     transform="scale(0.53483877)">
    <rect
       x="2"
       y="2"
       width="420"
       height="420"
       style="fill:#ff8a80"
       id="rect1" />
    <rect
       x="422"
       y="2"
       width="260"
       height="260"
       style="fill:#ffd180"
       id="rect2" />
    <rect
       x="522"
       y="262"
       width="160"
       height="160"
       style="fill:#ccff90"
       id="rect3" />
    <rect
       x="422"
       y="322"
       width="100"
       height="100"
       style="fill:#84ffff"
       id="rect4" />
    <rect
       x="422"
       y="262"
       width="60"
       height="60"
       style="fill:#8c9eff"
       id="rect5" />
    <rect
       x="482"
       y="262"
       width="40"
       height="40"
       style="fill:#b388ff"
       id="rect6" />
    <rect
       x="502"
       y="302"
       width="20"
       height="20"
       style="fill:#ea80fc"
       id="rect7" />
    <rect
       x="482"
       y="302"
       width="20"
       height="20"
       style="fill:#ffffff"
       id="rect8" />
    <g
       style="opacity:0.1;mix-blend-mode:multiply"
       id="g64">
      <line
         x1="22"
         y1="422"
         x2="22"
         y2="2"
         style="fill:none;stroke:#640000;stroke-width:1.5px;stroke-miterlimit:10"
         id="line8" />
      <line
         x1="2"
         y1="422"
         x2="2"
         y2="2"
         style="fill:none;stroke:#640000;stroke-width:1.5px;stroke-miterlimit:10"
         id="line9" />
      <line
         x1="42"
         y1="2"
         x2="42"
         y2="422"
         style="fill:none;stroke:#640000;stroke-width:1.5px;stroke-miterlimit:10"
         id="line10" />
      <line
         x1="62"
         y1="422"
         x2="62"
         y2="2"
         style="fill:none;stroke:#640000;stroke-width:1.5px;stroke-miterlimit:10"
         id="line11" />
      <line
         x1="82"
         y1="2"
         x2="82"
         y2="422"
         style="fill:none;stroke:#640000;stroke-width:1.5px;stroke-miterlimit:10"
         id="line12" />
      <line
         x1="102"
         y1="422"
         x2="102"
         y2="2"
         style="fill:none;stroke:#640000;stroke-width:1.5px;stroke-miterlimit:10"
         id="line13" />
      <line
         x1="122"
         y1="2"
         x2="122"
         y2="422"
         style="fill:none;stroke:#640000;stroke-width:1.5px;stroke-miterlimit:10"
         id="line14" />
      <line
         x1="142"
         y1="422"
         x2="142"
         y2="2"
         style="fill:none;stroke:#640000;stroke-width:1.5px;stroke-miterlimit:10"
         id="line15" />
      <line
         x1="162"
         y1="2"
         x2="162"
         y2="422"
         style="fill:none;stroke:#640000;stroke-width:1.5px;stroke-miterlimit:10"
         id="line16" />
      <line
         x1="182"
         y1="422"
         x2="182"
         y2="2"
         style="fill:none;stroke:#640000;stroke-width:1.5px;stroke-miterlimit:10"
         id="line17" />
      <line
         x1="202"
         y1="2"
         x2="202"
         y2="422"
         style="fill:none;stroke:#640000;stroke-width:1.5px;stroke-miterlimit:10"
         id="line18" />
      <line
         x1="222"
         y1="422"
         x2="222"
         y2="2"
         style="fill:none;stroke:#640000;stroke-width:1.5px;stroke-miterlimit:10"
         id="line19" />
      <line
         x1="242"
         y1="2"
         x2="242"
         y2="422"
         style="fill:none;stroke:#640000;stroke-width:1.5px;stroke-miterlimit:10"
         id="line20" />
      <line
         x1="262"
         y1="422"
         x2="262"
         y2="2"
         style="fill:none;stroke:#640000;stroke-width:1.5px;stroke-miterlimit:10"
         id="line21" />
      <line
         x1="282"
         y1="2"
         x2="282"
         y2="422"
         style="fill:none;stroke:#640000;stroke-width:1.5px;stroke-miterlimit:10"
         id="line22" />
      <line
         x1="302"
         y1="422"
         x2="302"
         y2="2"
         style="fill:none;stroke:#640000;stroke-width:1.5px;stroke-miterlimit:10"
         id="line23" />
      <line
         x1="322"
         y1="2"
         x2="322"
         y2="422"
         style="fill:none;stroke:#640000;stroke-width:1.5px;stroke-miterlimit:10"
         id="line24" />
      <line
         x1="342"
         y1="422"
         x2="342"
         y2="2"
         style="fill:none;stroke:#640000;stroke-width:1.5px;stroke-miterlimit:10"
         id="line25" />
      <line
         x1="362"
         y1="2"
         x2="362"
         y2="422"
         style="fill:none;stroke:#640000;stroke-width:1.5px;stroke-miterlimit:10"
         id="line26" />
      <line
         x1="382"
         y1="422"
         x2="382"
         y2="2"
         style="fill:none;stroke:#640000;stroke-width:1.5px;stroke-miterlimit:10"
         id="line27" />
      <line
         x1="402"
         y1="2"
         x2="402"
         y2="422"
         style="fill:none;stroke:#640000;stroke-width:1.5px;stroke-miterlimit:10"
         id="line28" />
      <line
         x1="422"
         y1="422"
         x2="422"
         y2="2"
         style="fill:none;stroke:#640000;stroke-width:1.5px;stroke-miterlimit:10"
         id="line29" />
      <line
         x1="442"
         y1="2"
         x2="442"
         y2="422"
         style="fill:none;stroke:#640000;stroke-width:1.5px;stroke-miterlimit:10"
         id="line30" />
      <line
         x1="462"
         y1="422"
         x2="462"
         y2="2"
         style="fill:none;stroke:#640000;stroke-width:1.5px;stroke-miterlimit:10"
         id="line31" />
      <line
         x1="482"
         y1="2"
         x2="482"
         y2="422"
         style="fill:none;stroke:#640000;stroke-width:1.5px;stroke-miterlimit:10"
         id="line32" />
      <line
         x1="502"
         y1="422"
         x2="502"
         y2="2"
         style="fill:none;stroke:#640000;stroke-width:1.5px;stroke-miterlimit:10"
         id="line33" />
      <line
         x1="522"
         y1="2"
         x2="522"
         y2="422"
         style="fill:none;stroke:#640000;stroke-width:1.5px;stroke-miterlimit:10"
         id="line34" />
      <line
         x1="542"
         y1="422"
         x2="542"
         y2="2"
         style="fill:none;stroke:#640000;stroke-width:1.5px;stroke-miterlimit:10"
         id="line35" />
      <line
         x1="562"
         y1="2"
         x2="562"
         y2="422"
         style="fill:none;stroke:#640000;stroke-width:1.5px;stroke-miterlimit:10"
         id="line36" />
      <line
         x1="582"
         y1="422"
         x2="582"
         y2="2"
         style="fill:none;stroke:#640000;stroke-width:1.5px;stroke-miterlimit:10"
         id="line37" />
      <line
         x1="602"
         y1="2"
         x2="602"
         y2="422"
         style="fill:none;stroke:#640000;stroke-width:1.5px;stroke-miterlimit:10"
         id="line38" />
      <line
         x1="622"
         y1="422"
         x2="622"
         y2="2"
         style="fill:none;stroke:#640000;stroke-width:1.5px;stroke-miterlimit:10"
         id="line39" />
      <line
         x1="642"
         y1="2"
         x2="642"
         y2="422"
         style="fill:none;stroke:#640000;stroke-width:1.5px;stroke-miterlimit:10"
         id="line40" />
      <line
         x1="662"
         y1="422"
         x2="662"
         y2="2"
         style="fill:none;stroke:#640000;stroke-width:1.5px;stroke-miterlimit:10"
         id="line41" />
      <line
         x1="682"
         y1="422"
         x2="682"
         y2="2"
         style="fill:none;stroke:#640000;stroke-width:1.5px;stroke-miterlimit:10"
         id="line42" />
      <line
         x1="2"
         y1="382"
         x2="682"
         y2="382"
         style="fill:none;stroke:#640000;stroke-width:1.5px;stroke-miterlimit:10"
         id="line43" />
      <line
         x1="682"
         y1="402"
         x2="2"
         y2="402"
         style="fill:none;stroke:#640000;stroke-width:1.5px;stroke-miterlimit:10"
         id="line44" />
      <line
         x1="682"
         y1="422"
         x2="2"
         y2="422"
         style="fill:none;stroke:#640000;stroke-width:1.5px;stroke-miterlimit:10"
         id="line45" />
      <line
         x1="2"
         y1="342"
         x2="682"
         y2="342"
         style="fill:none;stroke:#640000;stroke-width:1.5px;stroke-miterlimit:10"
         id="line46" />
      <line
         x1="682"
         y1="362"
         x2="2"
         y2="362"
         style="fill:none;stroke:#640000;stroke-width:1.5px;stroke-miterlimit:10"
         id="line47" />
      <line
         x1="2"
         y1="302"
         x2="682"
         y2="302"
         style="fill:none;stroke:#640000;stroke-width:1.5px;stroke-miterlimit:10"
         id="line48" />
      <line
         x1="682"
         y1="322"
         x2="2"
         y2="322"
         style="fill:none;stroke:#640000;stroke-width:1.5px;stroke-miterlimit:10"
         id="line49" />
      <line
         x1="2"
         y1="262"
         x2="682"
         y2="262"
         style="fill:none;stroke:#640000;stroke-width:1.5px;stroke-miterlimit:10"
         id="line50" />
      <line
         x1="682"
         y1="282"
         x2="2"
         y2="282"
         style="fill:none;stroke:#640000;stroke-width:1.5px;stroke-miterlimit:10"
         id="line51" />
      <line
         x1="2"
         y1="222"
         x2="682"
         y2="222"
         style="fill:none;stroke:#640000;stroke-width:1.5px;stroke-miterlimit:10"
         id="line52" />
      <line
         x1="682"
         y1="242"
         x2="2"
         y2="242"
         style="fill:none;stroke:#640000;stroke-width:1.5px;stroke-miterlimit:10"
         id="line53" />
      <line
         x1="2"
         y1="182"
         x2="682"
         y2="182"
         style="fill:none;stroke:#640000;stroke-width:1.5px;stroke-miterlimit:10"
         id="line54" />
      <line
         x1="682"
         y1="202"
         x2="2"
         y2="202"
         style="fill:none;stroke:#640000;stroke-width:1.5px;stroke-miterlimit:10"
         id="line55" />
      <line
         x1="2"
         y1="142"
         x2="682"
         y2="142"
         style="fill:none;stroke:#640000;stroke-width:1.5px;stroke-miterlimit:10"
         id="line56" />
      <line
         x1="682"
         y1="162"
         x2="2"
         y2="162"
         style="fill:none;stroke:#640000;stroke-width:1.5px;stroke-miterlimit:10"
         id="line57" />
      <line
         x1="2"
         y1="102"
         x2="682"
         y2="102"
         style="fill:none;stroke:#640000;stroke-width:1.5px;stroke-miterlimit:10"
         id="line58" />
      <line
         x1="682"
         y1="122"
         x2="2"
         y2="122"
         style="fill:none;stroke:#640000;stroke-width:1.5px;stroke-miterlimit:10"
         id="line59" />
      <line
         x1="2"
         y1="62"
         x2="682"
         y2="62"
         style="fill:none;stroke:#640000;stroke-width:1.5px;stroke-miterlimit:10"
         id="line60" />
      <line
         x1="682"
         y1="82"
         x2="2"
         y2="82"
         style="fill:none;stroke:#640000;stroke-width:1.5px;stroke-miterlimit:10"
         id="line61" />
      <line
         x1="2"
         y1="22"
         x2="682"
         y2="22"
         style="fill:none;stroke:#640000;stroke-width:1.5px;stroke-miterlimit:10"
         id="line62" />
      <line
         x1="2"
         y1="2"
         x2="682"
         y2="2"
         style="fill:none;stroke:#640000;stroke-width:1.5px;stroke-miterlimit:10"
         id="line63" />
      <line
         x1="682"
         y1="42"
         x2="2"
         y2="42"
         style="fill:none;stroke:#640000;stroke-width:1.5px;stroke-miterlimit:10"
         id="line64" />
    </g>
    <rect
       x="2"
       y="2"
       width="420"
       height="420"
       style="fill:none;stroke:#000000;stroke-width:1.5px"
       id="rect64" />
    <rect
       x="422"
       y="2"
       width="260"
       height="260"
       style="fill:none;stroke:#000000;stroke-width:1.5px;stroke-miterlimit:10"
       id="rect65" />
    <rect
       x="522"
       y="262"
       width="160"
       height="160"
       style="fill:none;stroke:#000000;stroke-width:1.5px;stroke-miterlimit:10"
       id="rect66" />
    <rect
       x="422"
       y="322"
       width="100"
       height="100"
       style="fill:none;stroke:#000000;stroke-width:1.5px;stroke-miterlimit:10"
       id="rect67" />
    <rect
       x="422"
       y="262"
       width="60"
       height="60"
       style="fill:none;stroke:#000000;stroke-width:1.5px;stroke-miterlimit:10"
       id="rect68" />
    <rect
       x="482"
       y="262"
       width="40"
       height="40"
       style="fill:none;stroke:#000000;stroke-width:1.5px;stroke-miterlimit:10"
       id="rect69" />
    <rect
       x="502"
       y="302"
       width="20"
       height="20"
       style="fill:none;stroke:#000000;stroke-width:1.5px;stroke-miterlimit:10"
       id="rect70" />
    <rect
       x="482"
       y="302"
       width="20"
       height="20"
       style="fill:none;stroke:#000000;stroke-width:1.5px;stroke-miterlimit:10"
       id="rect71" />
    <path
       d="M 181.73,238.12 V 233.2 L 200,213.51 a 46,46 0 0 0 5.52,-6.85 12.1,12.1 0 0 0 1.86,-6.51 8.77,8.77 0 0 0 -2.38,-6.15 8.46,8.46 0 0 0 -6.59,-2.61 9.9,9.9 0 0 0 -7.12,2.78 10.13,10.13 0 0 0 -2.9,7.7 v 0.35 h -6.68 v -0.35 a 15.1,15.1 0 0 1 4.8,-11.53 16.71,16.71 0 0 1 11.9,-4.5 q 7,0 11.33,4.15 a 13.13,13.13 0 0 1 4.31,9.77 15.65,15.65 0 0 1 -2.81,9.07 68.92,68.92 0 0 1 -6.86,8.33 l -14.31,15.09 h 25.39 v 5.83 z"
       id="path71" />
    <path
       d="m 237.48,238.12 v -43.77 l -12.93,5.45 v -6.54 l 18.63,-7 h 1 v 51.89 z"
       id="path72" />
    <path
       d="m 533.14,153.33 v -36.48 l -10.78,4.54 V 116 l 15.53,-5.86 h 0.88 v 43.24 z"
       id="path73" />
    <path
       d="m 553.53,142.2 v -0.3 H 559 v 0.3 a 6.63,6.63 0 0 0 2.35,5.44 9.44,9.44 0 0 0 6.21,1.94 9.32,9.32 0 0 0 6.18,-1.94 c 1.54,-1.28 2.31,-3.3 2.31,-6 a 7.45,7.45 0 0 0 -2.6,-6.18 10.92,10.92 0 0 0 -7,-2.08 h -3.37 v -4.51 h 3.08 a 9,9 0 0 0 6.24,-2 7,7 0 0 0 2.2,-5.48 6.73,6.73 0 0 0 -1.91,-5.24 7.33,7.33 0 0 0 -5.12,-1.73 7.93,7.93 0 0 0 -5.39,1.73 6.19,6.19 0 0 0 -2,4.95 v 0.29 h -5.44 v -0.29 a 10.57,10.57 0 0 1 3.54,-8 14.68,14.68 0 0 1 18.4,-0.14 10.42,10.42 0 0 1 3.54,8.14 10.79,10.79 0 0 1 -1.61,5.63 10.41,10.41 0 0 1 -5,4.16 V 131 a 10.42,10.42 0 0 1 8.15,10.58 11.44,11.44 0 0 1 -4,9.26 15.28,15.28 0 0 1 -10.16,3.37 q -6.51,0 -10.26,-3.37 a 11.1,11.1 0 0 1 -3.81,-8.64 z"
       id="path74" />
    <path
       d="m 589.5,351.82 a 9.27,9.27 0 0 1 1.89,-5.86 11.26,11.26 0 0 1 4.84,-3.63 v -0.11 a 10.36,10.36 0 0 1 -3.89,-3.42 9.23,9.23 0 0 1 -1.63,-5.46 9.65,9.65 0 0 1 3.29,-7.63 12.61,12.61 0 0 1 16,0 9.69,9.69 0 0 1 3.26,7.66 9.29,9.29 0 0 1 -1.61,5.46 10.41,10.41 0 0 1 -3.88,3.42 v 0.11 a 11.23,11.23 0 0 1 4.83,3.63 9.38,9.38 0 0 1 1.87,5.86 9.78,9.78 0 0 1 -3.6,8.1 15.19,15.19 0 0 1 -17.77,0 9.75,9.75 0 0 1 -3.6,-8.13 z m 5,-0.26 a 6.69,6.69 0 0 0 2.07,5.11 8.69,8.69 0 0 0 11,0 6.74,6.74 0 0 0 2,-5.11 6.84,6.84 0 0 0 -2,-5.14 8.59,8.59 0 0 0 -11,0 6.79,6.79 0 0 0 -2.11,5.14 z m 1.11,-18 a 6.68,6.68 0 0 0 1.78,4.79 6.1,6.1 0 0 0 4.68,1.88 6,6 0 0 0 4.65,-1.88 6.75,6.75 0 0 0 1.75,-4.79 6.66,6.66 0 0 0 -1.75,-4.76 6.09,6.09 0 0 0 -4.72,-1.8 6.16,6.16 0 0 0 -4.68,1.86 6.59,6.59 0 0 0 -1.75,4.74 z"
       id="path75" />
    <path
       d="M 462.22,379.16 V 379 H 466 v 0.21 a 4.34,4.34 0 0 0 1.6,3.56 6.61,6.61 0 0 0 4.27,1.3 5.71,5.71 0 0 0 4.36,-1.82 7.14,7.14 0 0 0 1.71,-5.09 6.82,6.82 0 0 0 -1.71,-5 5.89,5.89 0 0 0 -4.36,-1.72 7.48,7.48 0 0 0 -3.26,0.67 9.24,9.24 0 0 0 -2.65,1.89 l -2.71,-1.27 1.52,-14.89 h 15.5 v 3.49 H 468 l -0.9,8.41 a 12.78,12.78 0 0 1 2.4,-1.09 9.31,9.31 0 0 1 3,-0.47 9.22,9.22 0 0 1 6.63,2.63 10.17,10.17 0 0 1 -7.24,17.51 q -4.61,0 -7.12,-2.31 a 7.53,7.53 0 0 1 -2.55,-5.85 z"
       id="path76" />
    <path
       d="M 2,422 C 2,189.85 189.85,2 422,2"
       style="fill:none;stroke:#304ffe;stroke-width:4px;stroke-linecap:round"
       id="path77" />
    <path
       d="M 682,262 C 682,118.29 565.71,2 422,2"
       style="fill:none;stroke:#304ffe;stroke-width:4px;stroke-linecap:round"
       id="path78" />
    <path
       d="M 682,262 A 159.9,159.9 0 0 1 522,422"
       style="fill:none;stroke:#304ffe;stroke-width:4px;stroke-linecap:round"
       id="path79" />
    <path
       d="M 422,322 A 100,100 0 0 0 522,422"
       style="fill:none;stroke:#304ffe;stroke-width:4px;stroke-linecap:round"
       id="path80" />
    <path
       d="m 422,322 a 60,60 0 0 1 60,-60"
       style="fill:none;stroke:#304ffe;stroke-width:4px;stroke-linecap:round"
       id="path81" />
    <path
       d="M 522,302 A 40,40 0 0 0 482,262"
       style="fill:none;stroke:#304ffe;stroke-width:4px;stroke-linecap:round"
       id="path82" />
    <path
       d="m 522,302 a 20,20 0 0 1 -20,20"
       style="fill:none;stroke:#304ffe;stroke-width:4px;stroke-linecap:round"
       id="path83" />
    <path
       d="m 482,302 a 20,20 0 0 0 20,20"
       style="fill:none;stroke:#304ffe;stroke-width:4px;stroke-linecap:round"
       id="path84" />
  </g>
</svg>
